<svg width="383" height="372" viewBox="0 0 383 372" fill="none" xmlns="http://www.w3.org/2000/svg">
<path fill-rule="evenodd" clip-rule="evenodd" d="M304.008 336.944H-33.674C-42.8367 336.944 -50.2656 329.521 -50.2656 320.365V90.2104C-50.2656 81.0544 -42.8367 73.631 -33.674 73.631H304.008C313.171 73.631 320.599 81.0544 320.599 90.2104V320.365C320.599 329.521 313.171 336.944 304.008 336.944Z" fill="#E3EAFF"/>
<path fill-rule="evenodd" clip-rule="evenodd" d="M302.569 333.481H-32.2362C-39.4975 333.481 -45.3865 327.596 -45.3865 320.34V90.236C-45.3865 82.9801 -39.4975 77.0955 -32.2362 77.0955H302.569C309.831 77.0955 315.717 82.9801 315.717 90.236V320.34C315.717 327.596 309.831 333.481 302.569 333.481Z" fill="#6DB8FF"/>
<path fill-rule="evenodd" clip-rule="evenodd" d="M292 310.856H-21.6679C-26.1439 310.856 -29.7698 307.23 -29.7698 302.76V97.2571C-29.7698 92.7844 -26.1439 89.1613 -21.6679 89.1613H292C296.476 89.1613 300.105 92.7844 300.105 97.2571V302.76C300.105 307.23 296.476 310.856 292 310.856Z" fill="#3883EA"/>
<path fill-rule="evenodd" clip-rule="evenodd" d="M-59.2704 323.291C-60.3385 325.258 -60.9995 327.479 -60.9995 329.875C-60.9995 337.549 -54.7752 343.771 -47.0925 343.771H317.426C325.107 343.771 331.333 337.549 331.333 329.875C331.333 327.479 330.672 325.258 329.602 323.291H-59.2704Z" fill="#E3EAFF"/>
<path fill-rule="evenodd" clip-rule="evenodd" d="M-59.2705 336.458C-56.9163 340.794 -52.3757 343.771 -47.0926 343.771H317.426C322.712 343.771 327.25 340.794 329.602 336.458H-59.2705Z" fill="#C8D6F2"/>
<path fill-rule="evenodd" clip-rule="evenodd" d="M304.008 73.6315H56.5337V238.89C56.5337 242.544 59.4985 245.507 63.1579 245.507H320.599V90.2109C320.599 81.0549 313.171 73.6315 304.008 73.6315Z" fill="#424261"/>
<path fill-rule="evenodd" clip-rule="evenodd" d="M348.715 238.063H72.2607C68.6038 238.063 65.6389 235.102 65.6389 231.446V61.0638C65.6389 57.4096 68.6038 54.4469 72.2607 54.4469H348.715C352.372 54.4469 355.339 57.4096 355.339 61.0638V231.446C355.339 235.102 352.372 238.063 348.715 238.063Z" fill="#E3EAFF"/>
<path fill-rule="evenodd" clip-rule="evenodd" d="M360.304 225.658H83.8491C80.1921 225.658 77.2273 222.695 77.2273 219.038V48.659C77.2273 45.0023 80.1921 42.0396 83.8491 42.0396H360.304C363.961 42.0396 366.925 45.0023 366.925 48.659V219.038C366.925 222.695 363.961 225.658 360.304 225.658Z" fill="white"/>
<path fill-rule="evenodd" clip-rule="evenodd" d="M23.7375 167.347H-5.64755C-7.93465 167.347 -9.78589 165.497 -9.78589 163.209V132.195C-9.78589 129.909 -7.93465 128.059 -5.64755 128.059H23.7375C26.0222 128.059 27.8759 129.909 27.8759 132.195V163.209C27.8759 165.497 26.0222 167.347 23.7375 167.347Z" fill="#424261"/>
<path fill-rule="evenodd" clip-rule="evenodd" d="M21.5649 224.417H-7.82016C-10.1073 224.417 -11.9585 222.565 -11.9585 220.279V189.265C-11.9585 186.979 -10.1073 185.129 -7.82016 185.129H21.5649C23.8496 185.129 25.7033 186.979 25.7033 189.265V220.279C25.7033 222.565 23.8496 224.417 21.5649 224.417Z" fill="#6DB8FF"/>
<path fill-rule="evenodd" clip-rule="evenodd" d="M21.5649 280.246H-7.82016C-10.1073 280.246 -11.9585 278.394 -11.9585 276.108V245.094C-11.9585 242.808 -10.1073 240.958 -7.82016 240.958H21.5649C23.8496 240.958 25.7033 242.808 25.7033 245.094V276.108C25.7033 278.394 23.8496 280.246 21.5649 280.246Z" fill="#6DB8FF"/>
<path fill-rule="evenodd" clip-rule="evenodd" d="M15.1003 256.275C15.1003 251.336 11.0913 247.33 6.14827 247.33C1.20286 247.33 -2.80616 251.336 -2.80616 256.275C-2.80616 256.275 -4.06586 265.749 6.14827 273.283C16.36 265.749 15.1003 256.275 15.1003 256.275Z" fill="#9570EE"/>
<path fill-rule="evenodd" clip-rule="evenodd" d="M6.67409 262.732C2.67944 263.048 -0.630269 259.741 -0.316541 255.749C-0.067474 252.609 2.47827 250.063 5.62274 249.817C9.61739 249.503 12.9247 252.81 12.611 256.8C12.3619 259.942 9.81616 262.483 6.67409 262.732Z" fill="#F9FBFC"/>
<path fill-rule="evenodd" clip-rule="evenodd" d="M18.3561 204.253C18.3561 211.088 12.812 216.63 5.97221 216.63C-0.867539 216.63 -6.41406 211.088 -6.41406 204.253C-6.41406 197.421 -0.867539 191.878 5.97221 191.878C12.812 191.878 18.3561 197.421 18.3561 204.253Z" fill="#9570EE"/>
<path fill-rule="evenodd" clip-rule="evenodd" d="M15.9588 204.253C15.9588 209.767 11.4876 214.235 5.97216 214.235C0.45438 214.235 -4.01685 209.767 -4.01685 204.253C-4.01685 198.742 0.45438 194.274 5.97216 194.274C11.4876 194.274 15.9588 198.742 15.9588 204.253Z" fill="#F9FBFC"/>
<path fill-rule="evenodd" clip-rule="evenodd" d="M5.9724 194.274C10.4987 194.274 14.3185 197.282 15.5471 201.408C15.5974 201.58 15.7507 201.7 15.9279 201.7C16.1961 201.7 16.3901 201.444 16.3135 201.19C14.9939 196.729 10.8627 193.475 5.9724 193.475C1.07967 193.475 -3.04909 196.729 -4.36866 201.19C-4.44769 201.444 -4.25371 201.7 -3.98548 201.7C-3.80826 201.7 -3.65499 201.58 -3.6023 201.408C-2.37613 197.282 1.44369 194.274 5.9724 194.274Z" fill="#BB87EE"/>
<path fill-rule="evenodd" clip-rule="evenodd" d="M17.051 204.573C16.4571 204.573 15.9446 205.006 15.868 205.595C15.2094 210.472 11.0303 214.234 5.97237 214.234C0.912002 214.234 -3.26705 210.472 -3.92324 205.595C-4.00227 205.006 -4.51478 204.573 -5.10871 204.573C-5.82956 204.573 -6.39475 205.207 -6.29896 205.918C-5.4847 211.966 -0.302198 216.63 5.97237 216.63C12.2445 216.63 17.427 211.966 18.2413 205.918C18.3371 205.207 17.7719 204.573 17.051 204.573Z" fill="#7F57EE"/>
<path fill-rule="evenodd" clip-rule="evenodd" d="M15.9588 204.253C15.9588 209.767 11.4876 214.235 5.97216 214.235C0.45438 214.235 -4.01685 209.767 -4.01685 204.253C-4.01685 198.742 0.45438 194.274 5.97216 194.274C11.4876 194.274 15.9588 198.742 15.9588 204.253Z" fill="#F9FBFC"/>
<path fill-rule="evenodd" clip-rule="evenodd" d="M15.7064 207.473C15.5388 207.473 15.3879 207.581 15.3304 207.739C13.915 211.532 10.2605 214.234 5.97365 214.234C1.68444 214.234 -1.97253 211.532 -3.3879 207.739C-3.44538 207.581 -3.59626 207.473 -3.7639 207.473C-4.0417 207.473 -4.23808 207.751 -4.13989 208.014C-2.61196 212.111 1.33718 215.031 5.97365 215.031C10.6053 215.031 14.5593 212.111 16.0824 208.014C16.1806 207.751 15.9842 207.473 15.7064 207.473Z" fill="#9570EE"/>
<path fill-rule="evenodd" clip-rule="evenodd" d="M5.94426 205.132C5.68083 205.132 5.46529 204.916 5.46529 204.653V197.625C5.46529 197.361 5.68083 197.148 5.94426 197.148C6.2077 197.148 6.42324 197.361 6.42324 197.625V204.653C6.42324 204.916 6.2077 205.132 5.94426 205.132Z" fill="#9570EE"/>
<path fill-rule="evenodd" clip-rule="evenodd" d="M5.59837 204.386C5.76841 204.185 6.07256 204.159 6.27373 204.331L10.6132 207.993C10.8144 208.162 10.8384 208.466 10.6683 208.667C10.4983 208.871 10.1965 208.895 9.99296 208.722L5.65585 205.061C5.45229 204.891 5.42834 204.59 5.59837 204.386Z" fill="#9570EE"/>
<path fill-rule="evenodd" clip-rule="evenodd" d="M5.69238 195.909H6.05161V194.952H5.69238V195.909Z" fill="#CED6FF"/>
<path fill-rule="evenodd" clip-rule="evenodd" d="M5.69238 213.395H6.05161V212.438H5.69238V213.395Z" fill="#CED6FF"/>
<path fill-rule="evenodd" clip-rule="evenodd" d="M14.1416 204.354H15.0995V203.995H14.1416V204.354Z" fill="#CED6FF"/>
<path fill-rule="evenodd" clip-rule="evenodd" d="M0.151496 198.203L-0.10236 198.456L-0.782504 197.779L-0.526252 197.525L0.151496 198.203Z" fill="#CED6FF"/>
<path fill-rule="evenodd" clip-rule="evenodd" d="M12.5255 210.568L12.2717 210.821L11.5915 210.144L11.8478 209.89L12.5255 210.568Z" fill="#CED6FF"/>
<path fill-rule="evenodd" clip-rule="evenodd" d="M-0.103557 209.89L0.150299 210.144L-0.52745 210.823L-0.781306 210.567L-0.103557 209.89Z" fill="#CED6FF"/>
<path fill-rule="evenodd" clip-rule="evenodd" d="M12.2707 197.525L12.5246 197.779L11.8468 198.458L11.593 198.202L12.2707 197.525Z" fill="#CED6FF"/>
<path fill-rule="evenodd" clip-rule="evenodd" d="M21.5649 166.106H-7.82016C-10.1073 166.106 -11.9585 164.256 -11.9585 161.968V130.954C-11.9585 128.671 -10.1073 126.818 -7.82016 126.818H21.5649C23.8496 126.818 25.7033 128.671 25.7033 130.954V161.968C25.7033 164.256 23.8496 166.106 21.5649 166.106Z" fill="#6DB8FF"/>
<path fill-rule="evenodd" clip-rule="evenodd" d="M4.59473 171.275L5.00904 167.552L9.56169 163.005L10.5963 164.45L8.93902 166.312L17.6324 164.244V166.106L9.56169 169.208L7.90683 172.103L4.59473 171.275Z" fill="#F7D3A9"/>
<path fill-rule="evenodd" clip-rule="evenodd" d="M-36.0535 221.928C-36.0535 221.928 -7.71737 204.118 -5.43266 200.464C-3.14795 196.81 3.25115 169.636 3.25115 169.636L8.7354 171.007C8.7354 171.007 5.53585 201.376 4.62101 204.573C3.70617 207.77 -24.1725 237.454 -30.5692 237.454C-36.9659 237.454 -39.253 229.234 -36.0535 221.928Z" fill="#FF8B40"/>
<path fill-rule="evenodd" clip-rule="evenodd" d="M178.829 207.667H98.1265C96.4141 207.667 95.0227 206.279 95.0227 204.566V64.373C95.0227 62.6596 96.4141 61.2716 98.1265 61.2716H178.829C180.544 61.2716 181.933 62.6596 181.933 64.373V204.566C181.933 206.279 180.544 207.667 178.829 207.667Z" fill="#E3EAFF"/>
<path fill-rule="evenodd" clip-rule="evenodd" d="M163.723 85.4637H112.403C111.033 85.4637 109.922 84.3533 109.922 82.982V75.5395C109.922 74.1682 111.033 73.0578 112.403 73.0578H163.723C165.093 73.0578 166.206 74.1682 166.206 75.5395V82.982C166.206 84.3533 165.093 85.4637 163.723 85.4637Z" fill="#6DB8FF"/>
<path fill-rule="evenodd" clip-rule="evenodd" d="M128.754 154.421H117.577C114.948 154.421 112.819 152.293 112.819 149.668C112.819 147.043 114.948 144.913 117.577 144.913H128.754C131.381 144.913 133.51 147.043 133.51 149.668C133.51 152.293 131.381 154.421 128.754 154.421Z" fill="#6DB8FF"/>
<path fill-rule="evenodd" clip-rule="evenodd" d="M161.036 154.421H149.857C147.229 154.421 145.1 152.293 145.1 149.668C145.1 147.043 147.229 144.913 149.857 144.913H161.036C163.663 144.913 165.792 147.043 165.792 149.668C165.792 152.293 163.663 154.421 161.036 154.421Z" fill="#9570EE"/>
<path fill-rule="evenodd" clip-rule="evenodd" d="M108.681 107.381H169.102V97.8683H108.681V107.381Z" fill="#F9FBFC"/>
<path fill-rule="evenodd" clip-rule="evenodd" d="M108.681 123.51H169.102V113.998H108.681V123.51Z" fill="#F9FBFC"/>
<path fill-rule="evenodd" clip-rule="evenodd" d="M121.717 131.678H156.481V129.508H121.717V131.678Z" fill="#CDD4FF"/>
<path fill-rule="evenodd" clip-rule="evenodd" d="M361.029 180.579H252.392C245.706 180.579 240.286 175.163 240.286 168.482C240.286 161.803 245.706 156.387 252.392 156.387H361.029C367.713 156.387 373.135 161.803 373.135 168.482C373.135 175.163 367.713 180.579 361.029 180.579Z" fill="#9570EE"/>
<path fill-rule="evenodd" clip-rule="evenodd" d="M266.98 78.0192H199.313C193.829 78.0192 189.382 73.5776 189.382 68.095C189.382 62.6124 193.829 58.1708 199.313 58.1708H266.98C272.465 58.1708 276.91 62.6124 276.91 68.095C276.91 73.5776 272.465 78.0192 266.98 78.0192Z" fill="#E3EAFF"/>
<path fill-rule="evenodd" clip-rule="evenodd" d="M215.453 68.095C215.453 69.8085 214.064 71.1965 212.35 71.1965C210.635 71.1965 209.246 69.8085 209.246 68.095C209.246 66.3816 210.635 64.9936 212.35 64.9936C214.064 64.9936 215.453 66.3816 215.453 68.095Z" fill="#FFC240"/>
<path fill-rule="evenodd" clip-rule="evenodd" d="M236.769 68.095C236.769 69.8085 235.38 71.1965 233.665 71.1965C231.95 71.1965 230.559 69.8085 230.559 68.095C230.559 66.3816 231.95 64.9936 233.665 64.9936C235.38 64.9936 236.769 66.3816 236.769 68.095Z" fill="#90C240"/>
<path fill-rule="evenodd" clip-rule="evenodd" d="M256.426 68.095C256.426 69.8085 255.037 71.1965 253.322 71.1965C251.607 71.1965 250.218 69.8085 250.218 68.095C250.218 66.3816 251.607 64.9936 253.322 64.9936C255.037 64.9936 256.426 66.3816 256.426 68.095Z" fill="#EB4F24"/>
<path fill-rule="evenodd" clip-rule="evenodd" d="M14.0013 148.879C14.0013 153.052 10.6174 156.434 6.44074 156.434C2.26648 156.434 -1.11987 153.052 -1.11987 148.879C-1.11987 144.705 2.26648 141.324 6.44074 141.324C10.6174 141.324 14.0013 144.705 14.0013 148.879Z" fill="white"/>
<path fill-rule="evenodd" clip-rule="evenodd" d="M6.55468 154.451C3.48925 154.451 1.00098 151.967 1.00098 148.902C1.00098 145.836 3.48925 143.352 6.55468 143.352C9.62251 143.352 12.1084 145.836 12.1084 148.902C12.1084 151.967 9.62251 154.451 6.55468 154.451ZM14.2783 139.755H12.9467L11.0308 137.06C10.8823 136.847 10.6357 136.721 10.3746 136.721H2.73498C2.47394 136.721 2.22967 136.847 2.07879 137.06L0.165286 139.755H-1.16866C-3.24022 139.755 -4.93579 141.449 -4.93579 143.519V154.473C-4.93579 156.543 -3.24022 158.237 -1.16866 158.237H14.2783C16.3498 158.237 18.0454 156.543 18.0454 154.473V143.519C18.0454 141.449 16.3498 139.755 14.2783 139.755Z" fill="#9570EE"/>
<path fill-rule="evenodd" clip-rule="evenodd" d="M10.2267 148.902C10.2267 150.929 8.58143 152.571 6.55537 152.571C4.52692 152.571 2.88403 150.929 2.88403 148.902C2.88403 146.875 4.52692 145.233 6.55537 145.233C8.58143 145.233 10.2267 146.875 10.2267 148.902Z" fill="#6DB8FF"/>
<path fill-rule="evenodd" clip-rule="evenodd" d="M374.996 137.571H301.121C298.721 137.571 296.777 135.628 296.777 133.23V35.2178C296.777 32.82 298.721 30.8744 301.121 30.8744H374.996C377.395 30.8744 379.34 32.82 379.34 35.2178V133.23C379.34 135.628 377.395 137.571 374.996 137.571Z" fill="#3883EA"/>
<path fill-rule="evenodd" clip-rule="evenodd" d="M315.224 45.177H309.721C309.429 45.177 309.192 44.7008 309.192 44.1144C309.192 43.5281 309.429 43.0519 309.721 43.0519H315.224C315.517 43.0519 315.754 43.5281 315.754 44.1144C315.754 44.7008 315.517 45.177 315.224 45.177Z" fill="#00CCFF"/>
<path fill-rule="evenodd" clip-rule="evenodd" d="M349.281 45.177H317.812C317.52 45.177 317.283 44.7008 317.283 44.1144C317.283 43.5281 317.52 43.0519 317.812 43.0519H349.281C349.573 43.0519 349.81 43.5281 349.81 44.1144C349.81 44.7008 349.573 45.177 349.281 45.177Z" fill="#00CCFF"/>
<path fill-rule="evenodd" clip-rule="evenodd" d="M327.851 49.5707H317.814C317.522 49.5707 317.282 49.0945 317.282 48.5082C317.282 47.9219 317.522 47.4433 317.814 47.4433H327.851C328.143 47.4433 328.38 47.9219 328.38 48.5082C328.38 49.0945 328.143 49.5707 327.851 49.5707Z" fill="#FF56A9"/>
<path fill-rule="evenodd" clip-rule="evenodd" d="M344.36 49.5707H329.895C329.603 49.5707 329.364 49.0945 329.364 48.5082C329.364 47.9219 329.603 47.4433 329.895 47.4433H344.36C344.652 47.4433 344.892 47.9219 344.892 48.5082C344.892 49.0945 344.652 49.5707 344.36 49.5707Z" fill="#E3EAFF"/>
<path fill-rule="evenodd" clip-rule="evenodd" d="M349.281 70.9603H317.812C317.52 70.9603 317.283 70.484 317.283 69.8977C317.283 69.3114 317.52 68.8352 317.812 68.8352H349.281C349.573 68.8352 349.81 69.3114 349.81 69.8977C349.81 70.484 349.573 70.9603 349.281 70.9603Z" fill="#E3EAFF"/>
<path fill-rule="evenodd" clip-rule="evenodd" d="M315.224 75.3538H309.721C309.429 75.3538 309.192 74.8776 309.192 74.2912C309.192 73.7049 309.429 73.2287 309.721 73.2287H315.224C315.517 73.2287 315.754 73.7049 315.754 74.2912C315.754 74.8776 315.517 75.3538 315.224 75.3538Z" fill="#00CCFF"/>
<path fill-rule="evenodd" clip-rule="evenodd" d="M327.851 75.3538H317.814C317.522 75.3538 317.282 74.8776 317.282 74.2912C317.282 73.7049 317.522 73.2287 317.814 73.2287H327.851C328.143 73.2287 328.38 73.7049 328.38 74.2912C328.38 74.8776 328.143 75.3538 327.851 75.3538Z" fill="#E3EAFF"/>
<path fill-rule="evenodd" clip-rule="evenodd" d="M344.36 75.3538H329.895C329.603 75.3538 329.364 74.8776 329.364 74.2912C329.364 73.7049 329.603 73.2287 329.895 73.2287H344.36C344.652 73.2287 344.892 73.7049 344.892 74.2912C344.892 74.8776 344.652 75.3538 344.36 75.3538Z" fill="#FF56A9"/>
<path fill-rule="evenodd" clip-rule="evenodd" d="M357.085 53.963H317.814C317.52 53.963 317.283 53.4868 317.283 52.9005C317.283 52.3142 317.52 51.8379 317.814 51.8379H357.085C357.378 51.8379 357.615 52.3142 357.615 52.9005C357.615 53.4868 357.378 53.963 357.085 53.963Z" fill="#FF56A9"/>
<path fill-rule="evenodd" clip-rule="evenodd" d="M348.853 58.3568H339.712C339.403 58.3568 339.149 58.1055 339.149 57.7968V56.7917C339.149 56.4806 339.403 56.2317 339.712 56.2317H348.853C349.165 56.2317 349.414 56.4806 349.414 56.7917V57.7968C349.414 58.1055 349.165 58.3568 348.853 58.3568Z" fill="#00CCFF"/>
<path fill-rule="evenodd" clip-rule="evenodd" d="M330.859 58.3568H317.814C317.522 58.3568 317.282 57.8805 317.282 57.2942C317.282 56.7079 317.522 56.2317 317.814 56.2317H330.859C331.151 56.2317 331.388 56.7079 331.388 57.2942C331.388 57.8805 331.151 58.3568 330.859 58.3568Z" fill="#E3EAFF"/>
<path fill-rule="evenodd" clip-rule="evenodd" d="M337.8 58.3568H332.627C332.335 58.3568 332.098 57.8805 332.098 57.2942C332.098 56.7079 332.335 56.2317 332.627 56.2317H337.8C338.092 56.2317 338.332 56.7079 338.332 57.2942C338.332 57.8805 338.092 58.3568 337.8 58.3568Z" fill="#00CCFF"/>
<path fill-rule="evenodd" clip-rule="evenodd" d="M315.224 62.6031H309.721C309.429 62.6031 309.192 62.1269 309.192 61.5405C309.192 60.9542 309.429 60.478 309.721 60.478H315.224C315.517 60.478 315.754 60.9542 315.754 61.5405C315.754 62.1269 315.517 62.6031 315.224 62.6031Z" fill="#E3EAFF"/>
<path fill-rule="evenodd" clip-rule="evenodd" d="M357.085 62.6031H317.814C317.52 62.6031 317.283 62.1269 317.283 61.5405C317.283 60.9542 317.52 60.478 317.814 60.478H357.085C357.378 60.478 357.615 60.9542 357.615 61.5405C357.615 62.1269 357.378 62.6031 357.085 62.6031Z" fill="#E3EAFF"/>
<path fill-rule="evenodd" clip-rule="evenodd" d="M315.224 79.4225H309.721C309.429 79.4225 309.192 78.9463 309.192 78.36C309.192 77.7737 309.429 77.2975 309.721 77.2975H315.224C315.517 77.2975 315.754 77.7737 315.754 78.36C315.754 78.9463 315.517 79.4225 315.224 79.4225Z" fill="#E3EAFF"/>
<path fill-rule="evenodd" clip-rule="evenodd" d="M352.691 79.4225H339.809C339.445 79.4225 339.15 79.1258 339.15 78.7644V77.9556C339.15 77.5918 339.445 77.2975 339.809 77.2975H352.691C353.055 77.2975 353.35 77.5918 353.35 77.9556V78.7644C353.35 79.1258 353.055 79.4225 352.691 79.4225Z" fill="#E3EAFF"/>
<path fill-rule="evenodd" clip-rule="evenodd" d="M330.859 79.4225H317.814C317.522 79.4225 317.282 78.9463 317.282 78.36C317.282 77.7737 317.522 77.2975 317.814 77.2975H330.859C331.151 77.2975 331.388 77.7737 331.388 78.36C331.388 78.9463 331.151 79.4225 330.859 79.4225Z" fill="#E3EAFF"/>
<path fill-rule="evenodd" clip-rule="evenodd" d="M337.8 79.4225H332.627C332.335 79.4225 332.098 78.9463 332.098 78.36C332.098 77.7737 332.335 77.2975 332.627 77.2975H337.8C338.092 77.2975 338.332 77.7737 338.332 78.36C338.332 78.9463 338.092 79.4225 337.8 79.4225Z" fill="#E3EAFF"/>
<path fill-rule="evenodd" clip-rule="evenodd" d="M315.224 83.6688H309.721C309.429 83.6688 309.192 83.1926 309.192 82.6063C309.192 82.02 309.429 81.5438 309.721 81.5438H315.224C315.517 81.5438 315.754 82.02 315.754 82.6063C315.754 83.1926 315.517 83.6688 315.224 83.6688Z" fill="#FFC359"/>
<path fill-rule="evenodd" clip-rule="evenodd" d="M324.612 83.6688H317.813C317.521 83.6688 317.281 83.1926 317.281 82.6063C317.281 82.02 317.521 81.5438 317.813 81.5438H324.612C324.904 81.5438 325.144 82.02 325.144 82.6063C325.144 83.1926 324.904 83.6688 324.612 83.6688Z" fill="#00CCFF"/>
<path fill-rule="evenodd" clip-rule="evenodd" d="M309.721 66.9966C309.429 66.9966 309.192 66.5203 309.192 65.934C309.192 65.3477 309.429 64.8715 309.721 64.8715H315.225C315.517 64.8715 315.754 65.3477 315.754 65.934C315.754 66.5203 315.517 66.9966 315.225 66.9966" fill="#00CCFF"/>
<path fill-rule="evenodd" clip-rule="evenodd" d="M354.494 66.9966H339.852C339.464 66.9966 339.15 66.6831 339.15 66.2978V65.5703C339.15 65.185 339.464 64.8715 339.852 64.8715H354.494C354.882 64.8715 355.196 65.185 355.196 65.5703V66.2978C355.196 66.6831 354.882 66.9966 354.494 66.9966Z" fill="#E3EAFF"/>
<path fill-rule="evenodd" clip-rule="evenodd" d="M330.859 66.9966H317.814C317.522 66.9966 317.282 66.5203 317.282 65.934C317.282 65.3477 317.522 64.8715 317.814 64.8715H330.859C331.151 64.8715 331.388 65.3477 331.388 65.934C331.388 66.5203 331.151 66.9966 330.859 66.9966Z" fill="#FFC359"/>
<path fill-rule="evenodd" clip-rule="evenodd" d="M337.8 66.9966H332.627C332.335 66.9966 332.098 66.5203 332.098 65.934C332.098 65.3477 332.335 64.8715 332.627 64.8715H337.8C338.092 64.8715 338.332 65.3477 338.332 65.934C338.332 66.5203 338.092 66.9966 337.8 66.9966Z" fill="#FFC359"/>
<path fill-rule="evenodd" clip-rule="evenodd" d="M349.281 88.1863H317.812C317.52 88.1863 317.283 87.7101 317.283 87.1238C317.283 86.5375 317.52 86.0612 317.812 86.0612H349.281C349.573 86.0612 349.81 86.5375 349.81 87.1238C349.81 87.7101 349.573 88.1863 349.281 88.1863Z" fill="#E3EAFF"/>
<path fill-rule="evenodd" clip-rule="evenodd" d="M327.851 92.5798H317.814C317.522 92.5798 317.282 92.1036 317.282 91.5173C317.282 90.9286 317.522 90.4523 317.814 90.4523H327.851C328.143 90.4523 328.38 90.9286 328.38 91.5173C328.38 92.1036 328.143 92.5798 327.851 92.5798Z" fill="#E3EAFF"/>
<path fill-rule="evenodd" clip-rule="evenodd" d="M344.36 92.5798H329.895C329.603 92.5798 329.364 92.1036 329.364 91.5173C329.364 90.9286 329.603 90.4523 329.895 90.4523H344.36C344.652 90.4523 344.892 90.9286 344.892 91.5173C344.892 92.1036 344.652 92.5798 344.36 92.5798Z" fill="#E3EAFF"/>
<path fill-rule="evenodd" clip-rule="evenodd" d="M349.281 113.969H317.812C317.52 113.969 317.283 113.493 317.283 112.907C317.283 112.321 317.52 111.844 317.812 111.844H349.281C349.573 111.844 349.81 112.321 349.81 112.907C349.81 113.493 349.573 113.969 349.281 113.969Z" fill="#E3EAFF"/>
<path fill-rule="evenodd" clip-rule="evenodd" d="M315.224 118.363H309.721C309.429 118.363 309.192 117.887 309.192 117.301C309.192 116.714 309.429 116.238 309.721 116.238H315.224C315.517 116.238 315.754 116.714 315.754 117.301C315.754 117.887 315.517 118.363 315.224 118.363Z" fill="#FF56A9"/>
<path fill-rule="evenodd" clip-rule="evenodd" d="M327.851 118.363H317.814C317.522 118.363 317.282 117.887 317.282 117.301C317.282 116.714 317.522 116.238 317.814 116.238H327.851C328.143 116.238 328.38 116.714 328.38 117.301C328.38 117.887 328.143 118.363 327.851 118.363Z" fill="#00CCFF"/>
<path fill-rule="evenodd" clip-rule="evenodd" d="M344.36 118.363H329.895C329.603 118.363 329.364 117.887 329.364 117.301C329.364 116.714 329.603 116.238 329.895 116.238H344.36C344.652 116.238 344.892 116.714 344.892 117.301C344.892 117.887 344.652 118.363 344.36 118.363Z" fill="#E3EAFF"/>
<path fill-rule="evenodd" clip-rule="evenodd" d="M315.224 96.9723H309.721C309.429 96.9723 309.192 96.4961 309.192 95.9098C309.192 95.3235 309.429 94.8473 309.721 94.8473H315.224C315.517 94.8473 315.754 95.3235 315.754 95.9098C315.754 96.4961 315.517 96.9723 315.224 96.9723Z" fill="#FF56A9"/>
<path fill-rule="evenodd" clip-rule="evenodd" d="M345.904 96.9723H317.922C317.57 96.9723 317.283 96.6852 317.283 96.3334V95.4862C317.283 95.132 317.57 94.8473 317.922 94.8473H345.904C346.256 94.8473 346.546 95.132 346.546 95.4862V96.3334C346.546 96.6852 346.256 96.9723 345.904 96.9723Z" fill="#FF56A9"/>
<path fill-rule="evenodd" clip-rule="evenodd" d="M315.224 101.366H309.721C309.429 101.366 309.192 100.89 309.192 100.303C309.192 99.717 309.429 99.2408 309.721 99.2408H315.224C315.517 99.2408 315.754 99.717 315.754 100.303C315.754 100.89 315.517 101.366 315.224 101.366Z" fill="#E3EAFF"/>
<path fill-rule="evenodd" clip-rule="evenodd" d="M330.859 101.366H317.814C317.522 101.366 317.282 100.89 317.282 100.303C317.282 99.717 317.522 99.2408 317.814 99.2408H330.859C331.151 99.2408 331.388 99.717 331.388 100.303C331.388 100.89 331.151 101.366 330.859 101.366Z" fill="#E3EAFF"/>
<path fill-rule="evenodd" clip-rule="evenodd" d="M337.8 101.366H332.627C332.335 101.366 332.098 100.89 332.098 100.303C332.098 99.717 332.335 99.2408 332.627 99.2408H337.8C338.092 99.2408 338.332 99.717 338.332 100.303C338.332 100.89 338.092 101.366 337.8 101.366Z" fill="#E3EAFF"/>
<path fill-rule="evenodd" clip-rule="evenodd" d="M315.224 105.612H309.721C309.429 105.612 309.192 105.136 309.192 104.55C309.192 103.963 309.429 103.487 309.721 103.487H315.224C315.517 103.487 315.754 103.963 315.754 104.55C315.754 105.136 315.517 105.612 315.224 105.612Z" fill="#E3EAFF"/>
<path fill-rule="evenodd" clip-rule="evenodd" d="M353.411 105.612H318.001C317.606 105.612 317.282 105.292 317.282 104.897V104.205C317.282 103.808 317.606 103.487 318.001 103.487H353.411C353.806 103.487 354.13 103.808 354.13 104.205V104.897C354.13 105.292 353.806 105.612 353.411 105.612Z" fill="#E3EAFF"/>
<path fill-rule="evenodd" clip-rule="evenodd" d="M315.224 122.432H309.721C309.429 122.432 309.192 121.956 309.192 121.369C309.192 120.783 309.429 120.304 309.721 120.304H315.224C315.517 120.304 315.754 120.783 315.754 121.369C315.754 121.956 315.517 122.432 315.224 122.432Z" fill="#E3EAFF"/>
<path fill-rule="evenodd" clip-rule="evenodd" d="M357.043 122.432H339.681C339.388 122.432 339.149 121.956 339.149 121.369C339.149 120.783 339.388 120.304 339.681 120.304H357.043C357.336 120.304 357.573 120.783 357.573 121.369C357.573 121.956 357.336 122.432 357.043 122.432Z" fill="#E3EAFF"/>
<path fill-rule="evenodd" clip-rule="evenodd" d="M330.859 122.432H317.814C317.522 122.432 317.282 121.956 317.282 121.369C317.282 120.783 317.522 120.304 317.814 120.304H330.859C331.151 120.304 331.388 120.783 331.388 121.369C331.388 121.956 331.151 122.432 330.859 122.432Z" fill="#E3EAFF"/>
<path fill-rule="evenodd" clip-rule="evenodd" d="M337.8 122.432H332.627C332.335 122.432 332.098 121.956 332.098 121.369C332.098 120.783 332.335 120.304 332.627 120.304H337.8C338.092 120.304 338.332 120.783 338.332 121.369C338.332 121.956 338.092 122.432 337.8 122.432Z" fill="#E3EAFF"/>
<path fill-rule="evenodd" clip-rule="evenodd" d="M341.042 126.678H317.867C317.543 126.678 317.282 126.417 317.282 126.097V125.135C317.282 124.814 317.543 124.553 317.867 124.553H341.042C341.363 124.553 341.624 124.814 341.624 125.135V126.097C341.624 126.417 341.363 126.678 341.042 126.678Z" fill="#FFC359"/>
<path fill-rule="evenodd" clip-rule="evenodd" d="M355.418 110.006H339.87C339.473 110.006 339.149 109.683 339.149 109.286V108.601C339.149 108.204 339.473 107.881 339.87 107.881H355.418C355.815 107.881 356.139 108.204 356.139 108.601V109.286C356.139 109.683 355.815 110.006 355.418 110.006Z" fill="#FF56A9"/>
<path fill-rule="evenodd" clip-rule="evenodd" d="M330.859 110.006H317.814C317.522 110.006 317.282 109.53 317.282 108.943C317.282 108.357 317.522 107.881 317.814 107.881H330.859C331.151 107.881 331.388 108.357 331.388 108.943C331.388 109.53 331.151 110.006 330.859 110.006Z" fill="#FFC359"/>
<path fill-rule="evenodd" clip-rule="evenodd" d="M337.8 110.006H332.627C332.335 110.006 332.098 109.53 332.098 108.943C332.098 108.357 332.335 107.881 332.627 107.881H337.8C338.092 107.881 338.332 108.357 338.332 108.943C338.332 109.53 338.092 110.006 337.8 110.006Z" fill="#FFC359"/>
<path fill-rule="evenodd" clip-rule="evenodd" d="M286.715 298.948C286.715 309.356 278.273 317.789 267.86 317.789C257.445 317.789 249.006 309.356 249.006 298.948C249.006 288.543 257.445 280.107 267.86 280.107C278.273 280.107 286.715 288.543 286.715 298.948Z" fill="#FFC240"/>
<path fill-rule="evenodd" clip-rule="evenodd" d="M265.33 299.395C265.33 301.108 266.029 301.965 267.428 301.965C268.158 301.965 268.714 301.706 269.097 301.189C269.478 300.675 269.71 299.837 269.791 298.674L269.952 295.982C269.538 295.894 269.071 295.848 268.549 295.848C267.533 295.848 266.743 296.164 266.178 296.798C265.612 297.432 265.33 298.296 265.33 299.395ZM277.814 297.87C277.814 299.04 277.63 300.11 277.254 301.082C276.88 302.051 276.353 302.814 275.668 303.365C274.986 303.92 274.193 304.195 273.29 304.195C272.689 304.195 272.158 304.049 271.693 303.762C271.231 303.472 270.898 303.094 270.694 302.623H270.498C269.621 303.671 268.503 304.195 267.148 304.195C265.708 304.195 264.575 303.762 263.744 302.898C262.916 302.032 262.499 300.847 262.499 299.344C262.499 297.631 263.045 296.252 264.135 295.202C265.224 294.156 266.647 293.632 268.402 293.632C269.102 293.632 269.87 293.697 270.713 293.833C271.554 293.965 272.249 294.127 272.792 294.314L272.512 300.271C272.512 301.4 272.821 301.965 273.439 301.965C273.959 301.965 274.37 301.584 274.682 300.826C274.991 300.065 275.146 299.072 275.146 297.846C275.146 296.54 274.871 295.384 274.327 294.379C273.784 293.376 273.017 292.613 272.031 292.084C271.042 291.557 269.914 291.292 268.647 291.292C267.004 291.292 265.579 291.629 264.367 292.301C263.155 292.976 262.226 293.95 261.582 295.221C260.935 296.492 260.61 297.959 260.61 299.627C260.61 301.867 261.211 303.587 262.408 304.786C263.608 305.983 265.347 306.584 267.622 306.584C268.481 306.584 269.43 306.488 270.464 306.296C271.494 306.105 272.512 305.827 273.511 305.461V307.802C271.77 308.539 269.842 308.91 267.72 308.91C264.631 308.91 262.221 308.098 260.495 306.473C258.768 304.849 257.903 302.589 257.903 299.699C257.903 297.693 258.346 295.87 259.228 294.235C260.109 292.596 261.366 291.313 262.995 290.382C264.623 289.454 266.501 288.987 268.623 288.987C270.409 288.987 272.007 289.356 273.413 290.083C274.821 290.815 275.906 291.856 276.667 293.204C277.434 294.553 277.814 296.109 277.814 297.87Z" fill="white"/>
<path fill-rule="evenodd" clip-rule="evenodd" d="M162.958 -0.000976562H44.6706C35.0647 -0.000976562 27.2766 7.78139 27.2766 17.3825C27.2766 26.9813 35.0647 34.7636 44.6706 34.7636H53.3687L61.7771 43.1658L70.1855 34.7636H162.958C172.566 34.7636 180.354 26.9813 180.354 17.3825C180.354 7.78139 172.566 -0.000976562 162.958 -0.000976562Z" fill="white"/>
<path fill-rule="evenodd" clip-rule="evenodd" d="M128.78 23.8888H50.9446C49.8693 23.8888 49 23.0177 49 21.9456C49 20.8711 49.8693 20 50.9446 20H128.78C129.853 20 130.725 20.8711 130.725 21.9456C130.725 23.0177 129.853 23.8888 128.78 23.8888Z" fill="#C8D6F2"/>
<path fill-rule="evenodd" clip-rule="evenodd" d="M104.456 14.8888H50.9446C49.8693 14.8888 49 14.0177 49 12.9456C49 11.8711 49.8693 11 50.9446 11H104.456C105.531 11 106.4 11.8711 106.4 12.9456C106.4 14.0177 105.531 14.8888 104.456 14.8888Z" fill="#C8D6F2"/>
<path fill-rule="evenodd" clip-rule="evenodd" d="M324.633 220.259C324.633 220.259 323.187 224.55 322.387 227.144C322.387 227.144 329.478 226.994 331.973 223.701L329.329 217.364L324.633 220.259Z" fill="#F7D3A9"/>
<path fill-rule="evenodd" clip-rule="evenodd" d="M323.569 338.599L324.175 341.298L328.091 341.518L327.262 338.213L323.569 338.599Z" fill="#F79A74"/>
<path fill-rule="evenodd" clip-rule="evenodd" d="M324.175 341.298C324.175 341.298 317.613 344.715 317.665 344.935C317.723 345.156 328.751 343.997 328.751 343.997L328.09 341.518L324.175 341.298Z" fill="#544DB8"/>
<path fill-rule="evenodd" clip-rule="evenodd" d="M356.66 333.158L358.197 335.46L361.928 334.256L359.967 331.471L356.66 333.158Z" fill="#F79A74"/>
<path fill-rule="evenodd" clip-rule="evenodd" d="M358.196 335.46C358.196 335.46 353.304 341.007 353.435 341.194C353.565 341.38 363.439 336.333 363.439 336.333L361.93 334.256L358.196 335.46Z" fill="#544DB8"/>
<path fill-rule="evenodd" clip-rule="evenodd" d="M316.288 267.233C316.288 267.233 305.04 303.936 322.905 339.314H328.2C328.2 339.314 317.613 299.306 330.847 266.903L316.288 267.233Z" fill="#FFC240"/>
<path fill-rule="evenodd" clip-rule="evenodd" d="M326.055 268.532C326.055 268.532 327.801 306.875 356.525 334.199L361.511 332.421C361.511 332.421 338.084 298.296 339.658 263.332L326.055 268.532Z" fill="#FFC240"/>
<path fill-rule="evenodd" clip-rule="evenodd" d="M320.903 182.133L320.917 179.872C320.917 179.771 320.905 179.673 320.879 179.577L320.45 177.957L319.157 178.287L317.842 177.072C317.284 176.56 316.391 176.727 316.068 177.409C315.663 178.271 315.201 179.381 315.057 180.226C314.997 180.563 315.11 180.901 315.34 181.154L317.354 183.356C317.641 183.672 318.084 183.794 318.496 183.674L320.101 183.198C320.575 183.059 320.9 182.626 320.903 182.133Z" fill="#FBAE8F"/>
<path fill-rule="evenodd" clip-rule="evenodd" d="M340.307 231.764C340.307 231.764 325.636 216.051 324.671 210.169C323.701 204.289 321.558 182.409 321.558 182.409L317.031 183.283C317.031 183.283 315.479 214.575 316.852 218.179C318.226 221.783 327.049 240.147 332.794 241.844C338.542 243.541 342.577 237.879 340.307 231.764Z" fill="#FF4F72"/>
<path fill-rule="evenodd" clip-rule="evenodd" d="M319.927 205.844C319.927 205.844 316.618 216.848 318.713 219.622C320.811 222.395 328.53 219.882 331.526 215.446C334.522 211.006 335.12 201.018 330.026 200.187C324.935 199.354 321.127 201.408 319.927 205.844Z" fill="#FBAE8F"/>
<path fill-rule="evenodd" clip-rule="evenodd" d="M339.781 270.211C339.781 270.211 342.758 238.468 342.758 229.872C342.758 229.478 342.751 229.109 342.746 228.74C340.531 223.15 335.035 223.26 332.834 223.698C330.628 224.141 322.023 226.895 322.078 227.226L322.057 227.197C319.092 229.348 316.826 231.897 316.618 232.517C316.618 232.517 308.679 249.048 315.627 268.887L339.781 270.211Z" fill="#FF4F72"/>
<path fill-rule="evenodd" clip-rule="evenodd" d="M297.728 183.755L297.342 181.525C297.326 181.427 297.294 181.331 297.254 181.242L296.545 179.723L295.333 180.276L293.822 179.311C293.187 178.904 292.337 179.225 292.138 179.955C291.889 180.874 291.628 182.046 291.635 182.906C291.638 183.245 291.805 183.561 292.078 183.767L294.445 185.581C294.785 185.842 295.244 185.887 295.628 185.696L297.124 184.945C297.567 184.724 297.812 184.241 297.728 183.755Z" fill="#FBAE8F"/>
<path fill-rule="evenodd" clip-rule="evenodd" d="M325.552 229.21C325.552 229.21 308.345 216.316 306.362 210.695C304.377 205.073 298.421 183.911 298.421 183.911L294.12 185.567C294.12 185.567 298.09 216.646 300.073 219.953C302.059 223.261 313.973 239.792 319.927 240.453C325.885 241.116 328.862 234.831 325.552 229.21Z" fill="#FF4F72"/>
<path fill-rule="evenodd" clip-rule="evenodd" d="M332.171 200.114C332.171 200.114 323.346 196.369 319.155 204.082C316.951 208.933 324.009 204.302 325.333 205.846C326.655 207.389 323.568 210.474 324.45 211.577C325.333 212.678 326.876 209.593 327.759 211.355C328.641 213.121 326.435 213.338 324.89 215.322C323.346 217.309 326.215 220.173 324.009 221.937C321.803 223.698 315.627 225.022 319.375 234.501C323.128 243.98 313.199 246.404 317.392 259.408C321.583 272.415 350.039 279.69 355.334 264.259C360.627 248.828 342.981 245.081 344.083 238.248C345.187 231.414 349.158 229.652 343.863 222.818C338.567 215.985 335.258 212.017 336.805 207.609C338.347 203.199 334.156 200.114 332.171 200.114Z" fill="#16115E"/>
<path fill-rule="evenodd" clip-rule="evenodd" d="M382.71 167.841C382.71 178.249 374.268 186.682 363.855 186.682C353.44 186.682 345 178.249 345 167.841C345 157.436 353.44 149 363.855 149C374.268 149 382.71 157.436 382.71 167.841Z" fill="#FFC240"/>
<path d="M371 159.635H357C355.895 159.635 355 160.531 355 161.635V175.635C355 176.74 355.895 177.635 357 177.635H371C372.105 177.635 373 176.74 373 175.635V161.635C373 160.531 372.105 159.635 371 159.635Z" stroke="white" stroke-width="2" stroke-linecap="round" stroke-linejoin="round"/>
<path d="M368 157.635V161.635" stroke="white" stroke-width="2" stroke-linecap="round" stroke-linejoin="round"/>
<path d="M360 157.635V161.635" stroke="white" stroke-width="2" stroke-linecap="round" stroke-linejoin="round"/>
<path d="M355 165.635H373" stroke="white" stroke-width="2" stroke-linecap="round" stroke-linejoin="round"/>
<path fill-rule="evenodd" clip-rule="evenodd" d="M74.4718 300.585L73.3606 298.364L103.431 283.342L141.365 283.962L182.552 268.46H214.014L247.602 257.27L247.875 257.301L274.812 260.359L289.996 252.471L291.143 254.671L275.289 262.91L274.908 262.867L247.868 259.797L214.215 270.939H182.782L141.799 286.454L141.564 286.449L103.998 285.834L74.4718 300.585Z" fill="#F9FBFC"/>
<path fill-rule="evenodd" clip-rule="evenodd" d="M184.83 241.059C184.83 241.059 214.627 289.285 210.903 322.836L231.18 323.255L222.492 318.222L224.973 317.801C224.973 317.801 217.522 265.801 210.489 247.348C203.12 228.021 200.969 235.186 200.969 235.186L184.83 241.059Z" fill="#16115E"/>
<path fill-rule="evenodd" clip-rule="evenodd" d="M174.069 238.063C174.069 238.063 175.724 271.561 173.241 284.379C170.757 297.201 163.309 322.427 163.309 322.427L182.346 322.841L177.346 319.313L174.172 317.466C174.172 317.466 187.727 281.074 188.968 263.705C190.209 246.333 192.28 236.409 192.28 236.409L174.069 238.063Z" fill="#16115E"/>
<path fill-rule="evenodd" clip-rule="evenodd" d="M213.024 138.915L216.128 136.744L217.524 131.625L215.972 131.317L215.043 133.176L215.972 124.336L214.42 124.647L212.87 133.176L211.005 137.209L212.712 138.295" fill="#F7D3A9"/>
<path d="M220 124.313V90" stroke="#1074FF" stroke-width="6.62809" stroke-linecap="round"/>
<path d="M236 140.313L220 124.313" stroke="#1074FF" stroke-width="6.62809" stroke-linecap="round"/>
<path fill-rule="evenodd" clip-rule="evenodd" d="M231.387 148.116L231.802 144.394L236.354 139.845L237.389 141.293L235.732 143.155L244.422 141.085V142.947L236.354 146.048L234.699 148.944L231.387 148.116Z" fill="#F7D3A9"/>
<path fill-rule="evenodd" clip-rule="evenodd" d="M210.87 135.785C210.87 135.785 175.526 178.643 171.409 187.216C171.409 187.216 169.695 190.3 169.695 199.217C169.695 208.131 172.784 241.046 172.784 241.046L208.812 243.104C208.812 243.104 197.145 202.989 196.802 201.959C196.457 200.933 190.626 194.761 185.134 193.387L215.329 138.872L210.87 135.785Z" fill="#3883EA"/>
<path fill-rule="evenodd" clip-rule="evenodd" d="M188.49 189.247C188.49 189.247 189.992 193.698 190.82 196.388C190.82 196.388 183.466 196.235 180.877 192.818L183.624 186.246L188.49 189.247Z" fill="#9C5E45"/>
<path fill-rule="evenodd" clip-rule="evenodd" d="M194.082 175.337C194.082 175.337 196.257 187.997 194.082 190.873C191.907 193.747 184.452 188.858 181.344 184.256C178.238 179.654 177.615 169.297 182.898 168.433C188.179 167.572 192.839 170.735 194.082 175.337Z" fill="#AC6F56"/>
<path fill-rule="evenodd" clip-rule="evenodd" d="M190.738 198.768C190.738 198.768 219.074 180.959 221.359 177.304C223.643 173.652 230.042 146.479 230.042 146.479L235.527 147.85C235.527 147.85 232.327 178.218 231.412 181.416C230.5 184.613 202.621 214.294 196.222 214.294C189.825 214.294 187.541 206.077 190.738 198.768Z" fill="#3883EA"/>
<path fill-rule="evenodd" clip-rule="evenodd" d="M192.071 172.516C192.071 172.516 193.52 167.553 190.418 165.071C187.312 162.592 181.933 163.004 181.105 163.832C181.105 165.28 184.417 166.105 183.588 166.933C182.76 167.761 178.415 166.933 177.381 171.274C176.346 175.618 177.793 176.446 177.793 176.446C177.793 176.446 175.518 179.133 178.209 182.855C180.899 186.576 186.977 189.644 188.491 189.247C190.004 188.849 189.176 183.06 189.176 183.06C189.176 183.06 185.657 182.646 185.449 180.373C185.243 178.1 187.106 177.891 187.933 178.719C188.761 179.547 188.967 181.407 189.59 180.993C190.21 180.579 189.381 176.238 189.381 176.238C189.381 176.238 191.657 174.376 192.071 172.516Z" fill="#544DB8"/>
<path fill-rule="evenodd" clip-rule="evenodd" d="M133.751 325.294L112.47 331.126C106.619 332.73 103.147 338.825 104.751 344.674L108.774 359.339C110.379 365.185 116.481 368.657 122.332 367.054L128.712 365.305L134.996 371.51L137.23 362.969L143.613 361.222C149.466 359.619 152.938 353.521 151.334 347.675L147.308 333.01C145.701 327.161 139.601 323.689 133.751 325.294Z" fill="#9570EE"/>
<path fill-rule="evenodd" clip-rule="evenodd" d="M119.669 349.326C120.026 350.625 119.262 351.968 117.962 352.322C116.661 352.679 115.32 351.915 114.961 350.616C114.606 349.316 115.37 347.976 116.671 347.617C117.969 347.263 119.315 348.026 119.669 349.326Z" fill="white"/>
<path fill-rule="evenodd" clip-rule="evenodd" d="M128.684 349.384C127.384 349.739 126.043 348.975 125.686 347.676C125.329 346.376 126.093 345.036 127.394 344.677C128.694 344.323 130.038 345.086 130.394 346.386C130.749 347.685 129.985 349.028 128.684 349.384Z" fill="white"/>
<path fill-rule="evenodd" clip-rule="evenodd" d="M141.118 343.446C141.475 344.745 140.711 346.088 139.41 346.445C138.11 346.799 136.769 346.035 136.409 344.736C136.055 343.436 136.819 342.096 138.119 341.737C139.42 341.383 140.763 342.147 141.118 343.446Z" fill="white"/>
<path fill-rule="evenodd" clip-rule="evenodd" d="M107.439 283.966C107.439 286.137 105.679 287.896 103.506 287.896C101.334 287.896 99.5764 286.137 99.5764 283.966C99.5764 281.798 101.334 280.037 103.506 280.037C105.679 280.037 107.439 281.798 107.439 283.966Z" fill="#FFC240"/>
<path fill-rule="evenodd" clip-rule="evenodd" d="M251.875 258.74C251.875 260.911 250.115 262.67 247.942 262.67C245.77 262.67 244.01 260.911 244.01 258.74C244.01 256.572 245.77 254.811 247.942 254.811C250.115 254.811 251.875 256.572 251.875 258.74Z" fill="#FF4F72"/>
</svg>
