<svg width="397" height="465" viewBox="0 0 397 465" fill="none" xmlns="http://www.w3.org/2000/svg">
<path d="M27.0956 94.0161V115.114" stroke="#E9F2F4" stroke-width="0.25"/>
<path fill-rule="evenodd" clip-rule="evenodd" d="M37.6811 92.5453C37.6811 98.3921 32.9427 103.13 27.0954 103.13C21.2501 103.13 16.5117 98.3921 16.5117 92.5453C16.5117 86.7005 21.2501 81.9626 27.0954 81.9626C32.9427 81.9626 37.6811 86.7005 37.6811 92.5453Z" fill="#A564E9"/>
<path d="M27.0956 59.3862V79.8689" stroke="#E9F2F4" stroke-width="0.25"/>
<path fill-rule="evenodd" clip-rule="evenodd" d="M37.6811 56.1522C37.6811 61.999 32.9427 66.737 27.0954 66.737C21.2501 66.737 16.5117 61.999 16.5117 56.1522C16.5117 50.3074 21.2501 45.5694 27.0954 45.5694C32.9427 45.5694 37.6811 50.3074 37.6811 56.1522Z" fill="#A564E9"/>
<path fill-rule="evenodd" clip-rule="evenodd" d="M26.2577 61.1543L21.3621 54.8516L25.7998 56.707L36.0012 47.7845L26.2577 61.1543Z" fill="white"/>
<path fill-rule="evenodd" clip-rule="evenodd" d="M37.6811 129.647C37.6811 135.492 32.9427 140.23 27.0954 140.23C21.2501 140.23 16.5117 135.492 16.5117 129.647C16.5117 123.8 21.2501 119.062 27.0954 119.062C32.9427 119.062 37.6811 123.8 37.6811 129.647Z" fill="#A564E9"/>
<path fill-rule="evenodd" clip-rule="evenodd" d="M26.2577 96.7116L21.3621 90.4089L25.7998 92.2642L36.0012 83.3417L26.2577 96.7116Z" fill="white"/>
<path fill-rule="evenodd" clip-rule="evenodd" d="M26.2577 134.226L21.3621 127.924L25.7998 129.779L36.0012 120.857L26.2577 134.226Z" fill="white"/>
<path fill-rule="evenodd" clip-rule="evenodd" d="M43.9375 54.7442H87.198V48.9033H43.9375V54.7442Z" fill="#918DFF"/>
<path fill-rule="evenodd" clip-rule="evenodd" d="M43.9375 73.5049H119.65V57.2127H43.9375V73.5049Z" fill="white"/>
<path fill-rule="evenodd" clip-rule="evenodd" d="M43.9375 109.74H119.65V93.4501H43.9375V109.74Z" fill="white"/>
<path fill-rule="evenodd" clip-rule="evenodd" d="M43.9375 146.436H119.65V130.143H43.9375V146.436Z" fill="white"/>
<path fill-rule="evenodd" clip-rule="evenodd" d="M43.9375 91.3758H87.198V85.5349H43.9375V91.3758Z" fill="#918DFF"/>
<path fill-rule="evenodd" clip-rule="evenodd" d="M43.9375 127.725H87.198V121.884H43.9375V127.725Z" fill="#918DFF"/>
<path d="M242.347 44.7958H328.673" stroke="#ECECF2"/>
<path d="M242.347 50.7243H328.673" stroke="#ECECF2"/>
<path d="M242.347 56.6527H328.673" stroke="#ECECF2"/>
<path d="M242.347 62.5813H328.673" stroke="#ECECF2"/>
<path d="M242.347 68.5097H328.673" stroke="#ECECF2"/>
<path d="M242.347 74.4381H328.673" stroke="#ECECF2"/>
<path d="M242.347 82.2251H328.673" stroke="#ECECF2"/>
<path d="M242.347 88.0216H328.673" stroke="#ECECF2"/>
<path d="M242.347 93.8188H328.673" stroke="#ECECF2"/>
<path d="M242.347 99.615H328.673" stroke="#ECECF2"/>
<path fill-rule="evenodd" clip-rule="evenodd" d="M385.156 117.578C385.156 126.18 378.182 133.155 369.579 133.155C360.974 133.155 354 126.18 354 117.578C354 108.976 360.974 102 369.579 102C378.182 102 385.156 108.976 385.156 117.578Z" fill="white"/>
<path d="M289 1.95887H327.423" stroke="#E9F2F4"/>
<path d="M289 9.95887H327.423" stroke="#E9F2F4"/>
<path d="M289 17.9589H327.423" stroke="#E9F2F4"/>
<path fill-rule="evenodd" clip-rule="evenodd" d="M51.9478 464.253H55.3661L83.2429 328.365H76.1811L51.9478 464.253Z" fill="#C7C7C7"/>
<path fill-rule="evenodd" clip-rule="evenodd" d="M314.999 464.253H311.581L283.702 328.365H290.764L314.999 464.253Z" fill="#C7C7C7"/>
<path fill-rule="evenodd" clip-rule="evenodd" d="M47.4418 246.568C46.309 247.783 45.6162 249.357 45.2319 250.976C45.7695 249.793 46.4185 248.583 47.5155 247.888C48.9211 246.996 50.7866 247.118 52.2001 246.242C53.5221 245.423 54.201 243.899 54.8022 242.463C53.6495 243.325 52.5844 244.191 51.1848 244.56C49.7334 244.944 48.493 245.439 47.4418 246.568Z" fill="#482C3B"/>
<path fill-rule="evenodd" clip-rule="evenodd" d="M59.4165 449.032H64.6068V398.736H59.4165V449.032Z" fill="#A6AEBA"/>
<path fill-rule="evenodd" clip-rule="evenodd" d="M57.8398 398.738H66.1837V391.416H57.8398V398.738Z" fill="#D2DCEB"/>
<path fill-rule="evenodd" clip-rule="evenodd" d="M58.8611 445.373H65.1623V429.676H58.8611V445.373Z" fill="#D2DCEB"/>
<path fill-rule="evenodd" clip-rule="evenodd" d="M57.8398 452.693H66.1837V445.371H57.8398V452.693Z" fill="#D2DCEB"/>
<path fill-rule="evenodd" clip-rule="evenodd" d="M51.8989 391.416H72.1266V377.553H51.8989V391.416Z" fill="#A6AEBA"/>
<path fill-rule="evenodd" clip-rule="evenodd" d="M35.8842 383.789H90.1604C90.7557 383.789 91.2375 383.308 91.2375 382.712V374.487C91.2375 373.891 90.7557 373.41 90.1604 373.41H35.8842C35.2889 373.41 34.8071 373.891 34.8071 374.487V382.712C34.8071 383.308 35.2889 383.789 35.8842 383.789Z" fill="#A6AEBA"/>
<path fill-rule="evenodd" clip-rule="evenodd" d="M41.9086 459.688L57.8398 451.791V446.285L39.8181 458.362L41.9086 459.688Z" fill="#A6AEBA"/>
<path fill-rule="evenodd" clip-rule="evenodd" d="M36.0845 461.236C36.0845 463.296 37.7548 464.969 39.8174 464.969C41.878 464.969 43.5504 463.296 43.5504 461.236C43.5504 459.175 41.878 457.503 39.8174 457.503C37.7548 457.503 36.0845 459.175 36.0845 461.236Z" fill="#A6AEBA"/>
<path fill-rule="evenodd" clip-rule="evenodd" d="M58.2791 461.236C58.2791 463.296 59.9494 464.969 62.012 464.969C64.0726 464.969 65.745 463.296 65.745 461.236C65.745 459.175 64.0726 457.503 62.012 457.503C59.9494 457.503 58.2791 459.175 58.2791 461.236Z" fill="#A6AEBA"/>
<path fill-rule="evenodd" clip-rule="evenodd" d="M82.1136 459.688L66.1843 451.791V446.285L84.206 458.362L82.1136 459.688Z" fill="#A6AEBA"/>
<path fill-rule="evenodd" clip-rule="evenodd" d="M87.9386 461.236C87.9386 463.296 86.2662 464.969 84.2056 464.969C82.145 464.969 80.4727 463.296 80.4727 461.236C80.4727 459.175 82.145 457.503 84.2056 457.503C86.2662 457.503 87.9386 459.175 87.9386 461.236Z" fill="#A6AEBA"/>
<path fill-rule="evenodd" clip-rule="evenodd" d="M61.0012 461.19H63.022V449.034H61.0012V461.19Z" fill="#A6AEBA"/>
<path fill-rule="evenodd" clip-rule="evenodd" d="M25.4242 379.094C23.5567 379.154 21.8963 377.906 21.4543 376.09C20.0905 370.47 17.6139 359.975 17.5581 333.753C17.4964 304.816 11.4838 282.814 9.41131 273.539C8.83594 270.967 9.99664 268.328 12.2822 267.014C13.5186 266.303 14.9182 265.929 16.3417 265.929H66.628C66.628 265.929 87.2997 302.903 90.0113 315.572C92.7209 328.241 96.5096 376.875 96.5096 376.875L25.4242 379.094Z" fill="#FF8A95"/>
<path fill-rule="evenodd" clip-rule="evenodd" d="M27.0642 379.192C27.0642 379.192 22.3676 369.984 22.29 333.753C22.2243 303.918 16.2973 279.342 14.5871 269.854C14.2168 267.804 15.7916 265.928 17.8761 265.928H71.3579C71.3579 265.928 92.0315 302.902 94.7411 315.572C97.4508 328.241 101.241 376.874 101.241 376.874L27.0642 379.192Z" fill="#F74455"/>
<path fill-rule="evenodd" clip-rule="evenodd" d="M24.9391 379.192H75.8447V368.171H22.333V376.586C22.333 378.025 23.4997 379.192 24.9391 379.192Z" fill="#FF8A95"/>
<path fill-rule="evenodd" clip-rule="evenodd" d="M34.8071 379.192H110.038C111.837 379.192 113.299 377.732 113.299 375.929V371.434C113.299 369.63 111.837 368.171 110.038 368.171H38.0702C36.2665 368.171 34.8071 369.63 34.8071 371.434V379.192Z" fill="#F74455"/>
<path fill-rule="evenodd" clip-rule="evenodd" d="M42.3771 253.194C42.3771 253.194 50.1556 250.731 50.9381 247.345C51.5732 244.598 52.5885 236.057 52.5885 236.057H66.1546C66.1546 236.057 65.6369 243.688 66.1546 246.158C67.4467 252.302 75.1535 254.324 75.1535 254.324L76.2545 273.517L56.2578 290.279L36.9639 270.897L42.3771 253.194Z" fill="#9C5E45"/>
<path fill-rule="evenodd" clip-rule="evenodd" d="M73.3975 215.136C76.8179 219.699 76.1211 220.344 75.6512 226.629C75.249 232.034 73.8673 237.226 72.9535 239.571C72.0317 241.938 67.2078 252.126 58.609 248.408C53.8507 246.349 48.4494 241.281 46.8925 237.795C45.7497 235.239 45.1465 230.63 45.0569 226.374C44.9693 222.194 44.9494 216.771 45.0987 213.653C45.6263 202.64 67.1401 206.789 73.3975 215.136Z" fill="#AC6F56"/>
<path fill-rule="evenodd" clip-rule="evenodd" d="M95.7876 344.509C103.196 342.905 107.321 345.288 111.757 350.609C116.194 355.934 114.418 368.798 111.757 379.447C109.097 390.093 98.8914 461.027 98.8914 461.027H91.3498C91.3498 461.027 89.4127 433.077 88.0808 412.67C86.7488 392.263 91.306 363.033 91.306 363.033L62.5095 344.509C62.5095 344.509 89.1359 345.952 95.7876 344.509Z" fill="#16115E"/>
<path fill-rule="evenodd" clip-rule="evenodd" d="M95.4337 334.231C101.09 339.51 117.736 348.413 114.413 359.416L92.1149 368.866C92.1149 368.866 69.4564 360.652 62.5081 344.509L55.5598 328.366L70.4916 322.426L95.4337 334.231Z" fill="#16115E"/>
<path fill-rule="evenodd" clip-rule="evenodd" d="M79.1488 348.419C83.25 351.379 94.3334 356.258 92.1156 368.866C90.9827 375.296 72.8555 414.135 62.9527 430.457C57.9058 438.777 48.9168 456.19 48.9168 456.19L40.4873 458.202C40.4873 458.202 46.9797 437.07 51.4174 417.551C55.8531 398.032 68.7702 374.728 68.7702 374.728C68.7702 374.728 59.2317 368.288 52.1321 365.185C45.0325 362.077 41.212 360.815 51.8614 350.611C62.5088 340.408 71.1612 342.652 79.1488 348.419Z" fill="#16115E"/>
<path fill-rule="evenodd" clip-rule="evenodd" d="M95.4337 288.358C96.5964 293.247 98.0418 298.017 99.8117 301.109C101.584 304.2 138.155 317.678 138.155 317.678H116.794C116.794 317.678 96.461 315.008 90.6595 307.216C84.858 299.425 79.4766 288.358 79.4766 288.358H95.4337Z" fill="#9C5E45"/>
<path fill-rule="evenodd" clip-rule="evenodd" d="M82.3353 256.994C86.118 258.676 89.6121 268.232 92.4053 276.374C95.1986 284.516 95.4335 288.358 95.4335 288.358C95.4335 288.358 85.6601 293.946 80.4758 292.549C80.4758 292.549 75.5523 274.863 78.9448 265.929L82.3353 256.994Z" fill="#3883EA"/>
<path fill-rule="evenodd" clip-rule="evenodd" d="M63.479 334.87C74.1344 334.442 84.7837 334.186 95.4331 334.231C90.2587 330.875 85.6896 328.536 84.6941 327.541C82.4763 325.323 83.2269 305.561 84.8594 299.423C86.488 293.284 86.3884 286.173 85.2098 283.006C84.0312 279.838 82.3349 256.995 82.3349 256.995L75.1537 254.325C75.1537 254.325 77.3557 270.896 59.9392 270.896C42.451 270.896 42.3774 253.194 42.3774 253.194L31.2303 255.661C31.2303 255.661 30.408 277.242 30.8221 287.035C31.2363 296.825 35.889 313.789 37.2189 322.661C38.2562 329.567 36.339 333.789 35.017 338.876C43.8845 335.388 53.624 334.53 63.479 334.87Z" fill="#3883EA"/>
<path fill-rule="evenodd" clip-rule="evenodd" d="M49.4385 454.756C47.0435 454.278 46.1973 455.234 44.0432 456.671C41.887 458.109 39.4919 458.109 39.4919 458.109V464.573H56.1439L49.4385 454.756Z" fill="#FF5E69"/>
<path fill-rule="evenodd" clip-rule="evenodd" d="M100.341 455.954C100.341 455.954 100.098 458.195 96.5063 459.206C92.9167 460.218 90.4719 457.25 90.4719 457.25L89.6775 464.572L118.054 464.745L100.341 455.954Z" fill="#FF5E69"/>
<path fill-rule="evenodd" clip-rule="evenodd" d="M100.841 315.987C97.6512 315.609 94.5912 312.629 82.2456 312.48C80.0277 312.454 65.3627 309.593 61.3948 308.423C53.6024 306.127 49.6245 303.344 49.6245 303.344C49.6245 303.344 45.0992 286.477 43.3731 275.777C38.354 275.225 33.3488 274.582 28.3756 273.74C28.1964 287.102 37.6631 310.859 40.8148 313.228C46.9507 317.845 61.3649 317.614 64.8291 317.678C72.8465 317.823 107.02 318.745 107.02 318.745C107.02 318.745 109.654 317.035 100.841 315.987Z" fill="#9C5E45"/>
<path fill-rule="evenodd" clip-rule="evenodd" d="M47.4009 292.674C47.4009 292.674 42.8537 265.976 41.5377 263.169C34.7268 248.649 25.3715 256.385 26.7452 267.621C27.3286 272.404 27.7009 284.765 30.1198 296.441C35.559 296.739 43.6262 294.846 47.4009 292.674Z" fill="#3883EA"/>
<path fill-rule="evenodd" clip-rule="evenodd" d="M93.5632 318.744H107.022L120.476 271.667H110.245L93.5632 318.744Z" fill="#A6AEBA"/>
<path fill-rule="evenodd" clip-rule="evenodd" d="M97.4265 318.744H149.945L163.401 271.667H110.883L97.4265 318.744Z" fill="#D2DCEB"/>
<path d="M129.404 299.328L131.841 286.601" stroke="white" stroke-width="2.50299" stroke-linecap="round"/>
<path d="M134.201 306.399L129.404 299.328" stroke="white" stroke-width="2.50299" stroke-linecap="round"/>
<path fill-rule="evenodd" clip-rule="evenodd" d="M89.7002 321.189H149.945V317.677H89.7002V321.189Z" fill="#D2DCEB"/>
<path fill-rule="evenodd" clip-rule="evenodd" d="M59.5779 321.189H89.7003V317.677H59.5779V321.189Z" fill="#A6AEBA"/>
<path fill-rule="evenodd" clip-rule="evenodd" d="M35.0173 338.875C33.0343 348.423 37.7269 369.28 68.7711 374.728L86.4783 381.901C86.4783 381.901 93.5261 373.976 91.3062 363.033C89.0884 352.09 76.6571 347.921 68.4645 334.685C68.4645 334.685 55.5973 329.302 47.329 332.184C39.0588 335.065 35.0173 338.875 35.0173 338.875Z" fill="#16115E"/>
<path fill-rule="evenodd" clip-rule="evenodd" d="M76.0477 221.648C76.0477 221.648 72.3127 221.793 67.7237 214.88C67.7237 214.88 68.2174 218.011 63.7538 222.229C59.2902 226.446 55.2865 225.305 54.6136 227.34C53.9406 229.376 53.8789 231.208 53.8789 231.208C53.8789 231.208 53.1303 231.198 52.4056 230.107C51.9278 229.384 51.6849 227.632 50.8746 227.095C48.8359 225.745 45.3339 227.555 46.4568 231.52C47.1556 233.997 49.8334 235.655 49.8334 235.655C49.7816 242.427 52.545 244.51 52.545 244.51C52.545 244.51 47.958 246.59 45.6246 245.636C42.2699 244.265 41.4178 242.161 41.5413 238.368C41.5413 238.368 39.0128 237.98 37.0537 236.037C32.3771 231.395 37.7705 218.178 39.9366 216.544C39.9366 216.544 34.8239 209.303 41.2486 204.44C47.7668 199.505 50.2873 207.482 50.2873 207.482C52.4494 205.85 61.3269 205.3 65.8463 206.984C78.5821 211.732 76.0477 221.648 76.0477 221.648Z" fill="#1D171A"/>
<path d="M50.8532 202.171C51.7854 203.532 52.3335 205.141 52.464 206.772C50.5872 212.138 46.1481 215.552 44.1631 216.588C42.6385 216.98 40.8578 216.996 39.3392 216.411C37.6379 215.757 34.7748 213.033 34.0794 211.782C33.3841 210.531 32.9424 209.322 32.9132 208.521C32.8632 207.149 33.374 205.796 34.296 204.843C34.3913 204.744 34.5216 204.675 34.6123 204.577C34.7104 204.47 34.6818 204.394 34.6699 204.247C34.6409 203.889 34.6925 203.525 34.78 203.183C34.9765 202.415 35.4121 201.732 35.9448 201.176C36.4921 200.604 37.1618 200.125 37.9027 199.85C38.5632 199.604 39.3918 199.442 40.1023 199.613C40.3971 199.684 40.6239 199.789 40.8673 199.571C41.1051 199.359 41.2903 199.102 41.5398 198.899C42.1038 198.44 42.7578 198.087 43.4645 197.908C44.1551 197.732 44.8978 197.728 45.5963 197.941C46.282 198.15 46.8864 198.57 47.4564 199.012C48.6929 199.971 49.9474 200.848 50.8532 202.171Z" fill="#1D171A"/>
<path d="M67.4268 214.805C67.8269 217.391 67.4467 223.397 60.5183 228.099" stroke="#482C3B" stroke-width="0.25"/>
<path fill-rule="evenodd" clip-rule="evenodd" d="M351.186 449.032H356.377V398.736H351.186V449.032Z" fill="#A6AEBA"/>
<path fill-rule="evenodd" clip-rule="evenodd" d="M349.609 398.738H357.953V391.416H349.609V398.738Z" fill="#D2DCEB"/>
<path fill-rule="evenodd" clip-rule="evenodd" d="M350.629 445.373H356.93V429.676H350.629V445.373Z" fill="#D2DCEB"/>
<path fill-rule="evenodd" clip-rule="evenodd" d="M349.609 452.693H357.953V445.371H349.609V452.693Z" fill="#D2DCEB"/>
<path fill-rule="evenodd" clip-rule="evenodd" d="M343.669 391.416H363.896V377.553H343.669V391.416Z" fill="#A6AEBA"/>
<path fill-rule="evenodd" clip-rule="evenodd" d="M379.908 383.789H325.632C325.037 383.789 324.555 383.308 324.555 382.712V374.487C324.555 373.891 325.037 373.41 325.632 373.41H379.908C380.503 373.41 380.985 373.891 380.985 374.487V382.712C380.985 383.308 380.503 383.789 379.908 383.789Z" fill="#A6AEBA"/>
<path fill-rule="evenodd" clip-rule="evenodd" d="M373.885 459.688L357.954 451.791V446.285L375.975 458.362L373.885 459.688Z" fill="#A6AEBA"/>
<path fill-rule="evenodd" clip-rule="evenodd" d="M379.708 461.236C379.708 463.296 378.035 464.969 375.975 464.969C373.914 464.969 372.242 463.296 372.242 461.236C372.242 459.175 373.914 457.503 375.975 457.503C378.035 457.503 379.708 459.175 379.708 461.236Z" fill="#A6AEBA"/>
<path fill-rule="evenodd" clip-rule="evenodd" d="M357.514 461.236C357.514 463.296 355.842 464.969 353.781 464.969C351.721 464.969 350.048 463.296 350.048 461.236C350.048 459.175 351.721 457.503 353.781 457.503C355.842 457.503 357.514 459.175 357.514 461.236Z" fill="#A6AEBA"/>
<path fill-rule="evenodd" clip-rule="evenodd" d="M333.678 459.688L349.609 451.791V446.285L331.587 458.362L333.678 459.688Z" fill="#A6AEBA"/>
<path fill-rule="evenodd" clip-rule="evenodd" d="M327.855 461.236C327.855 463.296 329.525 464.969 331.588 464.969C333.648 464.969 335.321 463.296 335.321 461.236C335.321 459.175 333.648 457.503 331.588 457.503C329.525 457.503 327.855 459.175 327.855 461.236Z" fill="#A6AEBA"/>
<path fill-rule="evenodd" clip-rule="evenodd" d="M352.769 461.19H354.792V449.034H352.769V461.19Z" fill="#A6AEBA"/>
<path fill-rule="evenodd" clip-rule="evenodd" d="M390.368 379.094C392.236 379.154 393.896 377.906 394.338 376.09C395.702 370.47 398.178 359.975 398.234 333.753C398.296 304.816 413.465 282.814 415.537 273.539C416.113 270.967 414.952 268.328 412.666 267.014C411.43 266.303 410.03 265.929 408.605 265.929H349.164C349.164 265.929 328.493 302.903 325.783 315.572C323.071 328.241 319.283 376.875 319.283 376.875L390.368 379.094Z" fill="#FF8A95"/>
<path fill-rule="evenodd" clip-rule="evenodd" d="M388.727 379.192C388.727 379.192 393.426 369.984 393.502 333.753C393.567 303.918 408.65 279.342 410.361 269.854C410.731 267.804 409.156 265.928 407.072 265.928H344.434C344.434 265.928 323.762 302.902 321.052 315.572C318.341 328.241 314.552 376.874 314.552 376.874L388.727 379.192Z" fill="#F74455"/>
<path fill-rule="evenodd" clip-rule="evenodd" d="M390.854 379.192H323.482V368.171H393.46V376.586C393.46 378.025 392.293 379.192 390.854 379.192Z" fill="#FF8A95"/>
<path fill-rule="evenodd" clip-rule="evenodd" d="M332.225 379.192H305.756C303.954 379.192 302.493 377.732 302.493 375.929V371.434C302.493 369.63 303.954 368.171 305.756 368.171H328.962C330.766 368.171 332.225 369.63 332.225 371.434V379.192Z" fill="#F74455"/>
<path fill-rule="evenodd" clip-rule="evenodd" d="M335.883 255.052C331.037 259.874 330.708 284.103 325.809 296.679C325.809 296.679 292.411 309.736 277.191 313.57L282.475 319.136C282.475 319.136 327.724 308.263 333.464 304.445C342.236 298.608 347.336 275 348.173 263.188C349.009 251.377 340.944 250.014 335.883 255.052Z" fill="#FEC4AD"/>
<path fill-rule="evenodd" clip-rule="evenodd" d="M280.903 314.442L277.19 313.57C277.19 313.57 269.553 312.871 267.108 312.521C264.663 312.173 261.739 314.968 258.398 316.013C255.061 317.06 251.824 319.136 251.824 319.136H254.49L259.933 320.03L264.839 319.136C264.839 319.136 270.684 318.595 274.048 319.136C277.411 319.682 282.474 319.136 282.474 319.136L280.903 314.442Z" fill="#FEC4AD"/>
<path fill-rule="evenodd" clip-rule="evenodd" d="M313.955 338.862C303.591 342.296 290.883 347.8 287.162 351.262C283.439 354.728 276.106 359.641 282.019 378.667C285.798 390.822 302.271 452.4 302.271 452.4L310.617 450.914C310.617 450.914 307.652 415.234 304.682 388.543C303.242 375.603 302.753 371.996 302.753 371.996L313.955 367.435C328.157 361.598 323.289 337.209 323.289 337.209L313.955 338.862Z" fill="#FEC4AD"/>
<path fill-rule="evenodd" clip-rule="evenodd" d="M290.755 347.546C287.034 351.008 284.404 349.849 278.815 368.974C275.245 381.191 262.227 442.815 262.227 442.815L270.005 446.191C280.519 416.734 280.509 416.764 292.793 392.857C298.746 381.275 301.247 369.836 301.247 369.836L323.961 368.475C338.162 362.638 333.294 341.912 333.294 341.912C333.294 341.912 294.478 344.084 290.755 347.546Z" fill="#FEC4AD"/>
<path fill-rule="evenodd" clip-rule="evenodd" d="M376.803 329.225C376.803 339.175 384.006 350.169 375.658 361.483C368.109 371.717 323.96 368.474 323.96 368.474C323.96 368.474 330.188 357.69 324.275 349.524C320.496 344.307 311.784 339.477 311.784 339.477L336.479 331.502L356.307 316.102L376.803 329.225Z" fill="#508CFF"/>
<path fill-rule="evenodd" clip-rule="evenodd" d="M352.03 252.855C350.694 257.394 341.221 257.305 334.231 248.83C327.237 240.353 322.17 225.911 329.148 215.704C336.126 205.5 345.46 225.266 348.639 235.775C351.819 246.288 352.03 252.855 352.03 252.855Z" fill="#CDB75D"/>
<path fill-rule="evenodd" clip-rule="evenodd" d="M329.99 215.564C328.116 217.792 329.91 226.274 330.238 227.536C330.874 229.971 329.637 233.327 330.344 233.893C331.051 234.456 331.403 233.998 332.604 234.281C332.733 234.311 336.018 240.757 336.599 242.093C337.485 244.125 342.252 240.524 343.695 242.049C344.74 243.156 344.786 245.204 345.138 247.748L342.351 259L365.097 254.62C365.097 254.62 358.458 244.732 356.761 240.213C355.067 235.692 357.185 230.749 356.62 224.676C356.055 218.6 353.343 210.794 344.754 209.984C337.266 209.277 332.251 212.88 329.99 215.564Z" fill="#FEC4AD"/>
<path fill-rule="evenodd" clip-rule="evenodd" d="M337.183 330.203C337.183 330.203 342.957 328.937 352.42 330.203C361.882 331.471 375.902 328.819 375.902 328.819C375.902 328.819 370.157 299.193 370.509 285.757C370.863 272.322 371.925 257.825 371.925 257.825L346.73 253.581C346.73 253.581 340.629 255.765 337.183 265.603C333.737 275.441 334.265 317.886 337.183 330.203Z" fill="#E4DDD7"/>
<path fill-rule="evenodd" clip-rule="evenodd" d="M345.139 247.747C343.282 249.605 337.183 251.99 337.183 254.641C337.183 257.293 332.409 280.099 332.674 284.873C332.939 289.646 334.693 307.782 333.632 313.352C332.573 318.918 332.573 331.265 332.573 331.265L337.183 330.202C337.183 330.202 335.858 298.662 337.183 286.995C338.509 275.327 346.73 253.847 346.73 253.847L343.636 252.786L345.139 247.747Z" fill="#9B39B0"/>
<path fill-rule="evenodd" clip-rule="evenodd" d="M354.306 253.847L346.729 253.582C346.729 253.582 344.18 265.25 344.18 287.717C344.18 306.631 348.055 332.127 348.055 332.127C348.055 332.127 353.926 334.396 361.884 334.663C369.839 334.928 375.904 332.011 375.904 332.011C375.904 332.011 374.578 313.513 375.904 295.481C377.23 277.447 382.051 273.348 381.12 261.537C379.573 241.948 361.846 248.808 361.846 248.808L354.306 253.847Z" fill="#9B39B0"/>
<path fill-rule="evenodd" clip-rule="evenodd" d="M346.729 253.582C346.729 253.582 358.93 247.747 360.787 244.036C360.787 244.036 362.113 247.217 361.846 248.808C361.582 250.398 349.913 261.539 349.913 261.539L346.729 253.582Z" fill="#692777"/>
<path fill-rule="evenodd" clip-rule="evenodd" d="M356.836 254.974C359.828 239.918 351.819 235.491 343.061 230.124C334.303 224.755 329.148 215.705 329.148 215.705C329.148 215.705 332.539 204.686 342.428 202.427C352.314 200.167 364.947 206.333 368.138 221.92C370.4 232.971 373.358 236.867 380.852 242.262C389.893 248.769 392.596 265.354 382.051 273.347C372.297 280.741 377.619 263.856 374 254C373.389 252.332 366.117 260.134 361.883 261.538C357.437 263.009 356.356 257.395 356.836 254.974Z" fill="#CDB75D"/>
<path fill-rule="evenodd" clip-rule="evenodd" d="M345.139 247.747C345.139 247.747 344.345 251.46 346.73 253.582L342.223 259.945C342.223 259.945 340.895 254.908 342.223 252.786C343.546 250.664 345.139 247.747 345.139 247.747Z" fill="#692777"/>
<path fill-rule="evenodd" clip-rule="evenodd" d="M301.689 447.938C301.689 447.938 301.932 450.18 305.524 451.191C309.113 452.205 311.558 449.236 311.558 449.236L312.353 456.558L300.885 464.645H291.358L296.511 458.925L301.689 447.938Z" fill="#120E4C"/>
<path fill-rule="evenodd" clip-rule="evenodd" d="M263.458 437.794C263.458 437.794 261.767 440.933 264.881 442.99C267.993 445.048 271.224 442.966 271.224 442.966L269.753 450.182L242.668 441.71L263.458 437.794Z" fill="#120E4C"/>
<path fill-rule="evenodd" clip-rule="evenodd" d="M368.511 257.329C365.893 263.641 358.206 284.375 353.304 296.95C353.304 296.95 317.717 308.351 302.494 312.186L307.778 317.754C307.778 317.754 351.186 311.109 360.599 306.721C370.149 302.27 379.194 271.666 380.801 263.633C383.122 252.023 371.338 250.512 368.511 257.329Z" fill="#FEC4AD"/>
<path fill-rule="evenodd" clip-rule="evenodd" d="M306.207 313.058L302.494 312.186C302.494 312.186 294.857 311.485 292.412 311.137C289.968 310.786 287.043 313.581 283.702 314.629C280.365 315.676 277.128 317.752 277.128 317.752H279.794L285.235 318.646L290.143 317.752C290.143 317.752 295.988 317.211 299.353 317.752C302.715 318.296 307.778 317.752 307.778 317.752L306.207 313.058Z" fill="#FEC4AD"/>
<path fill-rule="evenodd" clip-rule="evenodd" d="M165.071 161.293L155.415 183.679L157.891 184.746L167.551 162.348C167.663 162.093 167.541 161.797 167.285 161.689C166.767 161.47 166.245 161.251 165.726 161.03C165.471 160.923 165.18 161.04 165.071 161.293Z" fill="#364469"/>
<path fill-rule="evenodd" clip-rule="evenodd" d="M165.135 166.765L163.522 166.07L166.232 159.789C166.423 159.343 166.939 159.138 167.385 159.331C167.831 159.522 168.036 160.04 167.842 160.484L165.135 166.765Z" fill="#364469"/>
<path fill-rule="evenodd" clip-rule="evenodd" d="M190.449 214.444C190.449 214.444 180.956 240.515 177.504 240.391C174.908 240.296 157.557 216.578 154.764 212.473C151.973 208.368 146.552 198.719 146.552 198.719L153.615 196.523C153.615 196.523 165.768 211.159 168.89 213.787C172.007 216.415 173.321 217.4 173.321 217.4L176.937 207.528L190.449 214.444Z" fill="#FEC4AD"/>
<path fill-rule="evenodd" clip-rule="evenodd" d="M185.198 187.282C181.375 188.299 180.057 191.699 178.415 198.72C176.772 205.74 174.383 212.367 174.383 212.367L186.954 218.222C186.954 218.222 189.221 205.74 190.057 197.856C190.896 189.975 188.534 186.394 185.198 187.282Z" fill="#AFAEB8"/>
<path fill-rule="evenodd" clip-rule="evenodd" d="M236.823 455.72V464.953H214.035C214.035 464.953 219.745 461.611 228.159 460.07L229.399 455.72H236.823Z" fill="#4E678A"/>
<path fill-rule="evenodd" clip-rule="evenodd" d="M199.322 455.72V464.953H176.198C176.198 464.953 182.244 461.611 190.658 460.07L191.898 455.72H199.322Z" fill="#4E678A"/>
<path fill-rule="evenodd" clip-rule="evenodd" d="M232.944 269.563C232.944 269.563 236.174 298.916 236.287 330.454C236.401 361.991 238.28 455.695 238.28 455.695H225.542C225.542 455.695 212.41 365.144 207.636 344.87C202.862 324.599 190.448 269.941 190.448 269.941L232.944 269.563Z" fill="#0053BD"/>
<path fill-rule="evenodd" clip-rule="evenodd" d="M213.364 162.953C213.364 162.953 214.188 169.373 214.865 172.64C215.54 175.905 216.105 177.627 216.603 178.626C217.708 180.836 224.481 187.573 224.481 187.573C224.481 187.573 203.366 198.719 197.156 198.719C190.948 198.719 193.124 186.267 193.124 186.267C193.124 186.267 199.893 180.918 200.901 178.216C201.91 175.513 202.474 167.683 202.474 167.683L213.364 162.953Z" fill="#FEC4AD"/>
<path fill-rule="evenodd" clip-rule="evenodd" d="M205.249 301.774C205.249 301.774 202.861 349.827 202.386 359.289C201.906 368.749 202.386 455.649 202.386 455.649C202.386 455.649 190.448 455.971 190.448 455.649C190.448 455.326 179.198 364.015 177.74 340.703C176.281 317.39 177.135 289.752 175.2 286.527C173.265 283.304 180.424 269.715 180.424 269.715L197.319 274.222L205.249 301.774Z" fill="#0053BD"/>
<path fill-rule="evenodd" clip-rule="evenodd" d="M220.18 181.296L241.889 190.66C241.889 190.66 237.597 208.23 237.36 215.214C237.121 222.198 234.616 277.363 234.616 277.363C234.616 277.363 227.949 287.685 195.881 283.576C183.514 281.989 177.434 275.963 177.434 275.963C177.434 275.963 180.902 215.214 181.857 208.23C182.811 201.247 185.198 187.282 185.198 187.282L195.658 184.063L199.927 190.429L220.18 181.296Z" fill="#2C3136"/>
<path fill-rule="evenodd" clip-rule="evenodd" d="M219.212 177.511L199.926 190.428L205.23 196.524L220.18 181.295L219.212 177.511Z" fill="#AFAEB8"/>
<path fill-rule="evenodd" clip-rule="evenodd" d="M199.927 190.429L194.665 194.653L195.657 184.062L197.628 181.295L199.927 190.429Z" fill="#AFAEB8"/>
<path fill-rule="evenodd" clip-rule="evenodd" d="M179.602 228.292L161.061 233.647C159.157 234.187 156.947 233.207 156.115 231.463L138.062 192.891C137.239 191.161 138.09 189.315 139.975 188.768L158.351 183.339C161.698 183.011 163.37 183.666 164.218 185.439L182.314 223.719C183.172 225.509 182.845 226.763 179.602 228.292Z" fill="#97A3CC"/>
<mask id="mask0_9_1663" style="mask-type:luminance" maskUnits="userSpaceOnUse" x="136" y="183" width="45" height="52">
<path fill-rule="evenodd" clip-rule="evenodd" d="M157.234 183.557L138.762 189.002C136.865 189.551 136.005 191.405 136.831 193.138L154.954 231.882C155.791 233.634 158.013 234.614 159.928 234.068L178.557 228.679C180.564 228.11 181.499 226.183 180.637 224.377L162.387 185.747C161.7 184.308 160.067 183.392 158.417 183.392C158.018 183.392 157.62 183.444 157.234 183.557Z" fill="white"/>
</mask>
<g mask="url(#mask0_9_1663)">
<path fill-rule="evenodd" clip-rule="evenodd" d="M157.234 183.557L138.762 189.002C136.865 189.551 136.005 191.405 136.831 193.138L154.954 231.882C155.791 233.634 158.013 234.614 159.928 234.068L178.557 228.679C180.564 228.11 181.499 226.183 180.637 224.377L162.387 185.747C161.7 184.308 160.067 183.392 158.417 183.392C158.018 183.392 157.62 183.444 157.234 183.557Z" fill="url(#paint0_linear_9_1663)"/>
</g>
<path fill-rule="evenodd" clip-rule="evenodd" d="M232.365 218.303C232.365 218.303 215.128 246.912 212.828 247.896C210.527 248.881 180.789 229.519 175.204 225.908C169.62 222.295 164.947 218.743 164.248 218.168C163.551 217.595 161.889 211.764 161.951 211.786C162.01 211.805 162.729 210.758 162.729 210.758L163.47 211.148L163.078 208.829L163.776 207.515L164.455 207.74L164.68 205.401L165.707 203.635C165.707 203.635 168.634 206.946 170.442 208.917C172.25 210.888 174.384 212.367 174.384 212.367C174.384 212.367 174.219 209.245 174.384 208.588C174.547 207.933 174.055 205.797 174.055 205.797L176.936 207.527C176.936 207.527 179.477 215.534 179.968 216.167C180.46 216.8 181.774 221.727 188.673 224.355C201.022 229.057 207.879 230.827 207.879 230.827C207.391 230.757 219.124 209.448 219.124 209.448L232.365 218.303Z" fill="#FEC4AD"/>
<path fill-rule="evenodd" clip-rule="evenodd" d="M229.654 225.267L215.66 214.782C215.66 214.782 221.139 203.829 224.197 198.089C227.582 191.737 230.737 184.021 236.726 186.272C242.506 188.446 244.019 194.229 242.705 200.47C241.064 208.262 229.654 225.267 229.654 225.267Z" fill="#AFAEB8"/>
<path fill-rule="evenodd" clip-rule="evenodd" d="M188.829 146.524C187.338 147.876 184.862 150.593 185.059 152.182C185.258 153.77 185.59 158.472 186.383 161.102C187.173 163.732 188.71 170.63 189.837 173.658C190.962 176.684 192.262 180.84 193.192 181.23C194.123 181.621 202.296 180.181 203.833 179.051C205.372 177.922 213.525 168.963 211.789 162.338C211.789 162.338 213.927 162.615 215.241 156.065C215.583 154.357 208.637 149.502 207.556 147.808C204.934 143.691 195.36 146.932 192.622 147.143C189.885 147.354 188.829 146.524 188.829 146.524Z" fill="#FEC4AD"/>
<path fill-rule="evenodd" clip-rule="evenodd" d="M185.06 152.182C185.06 152.182 185.597 149.861 187.719 150.356C189.842 150.854 194.08 150.567 197.19 149.698C200.298 148.828 203.079 146.984 203.079 146.984C203.079 146.984 203.925 151.111 205.003 152.055C206.082 152.996 206.768 154.921 207.165 156.237C207.561 157.551 209.241 157.933 209.241 157.933C209.241 157.933 210.008 154.246 211.66 153.988C214.937 153.474 214.541 157.895 213.193 159.335C211.843 160.774 210.428 161.879 210.428 161.879C210.428 161.879 210.818 163.776 211.479 165.154C212.14 166.531 214.165 168.45 214.165 168.45C214.165 168.45 215.029 159.657 217.109 155.624C219.19 151.593 219.06 144.173 213.054 142.61C213.054 142.61 211.68 135.912 203.788 136.248C195.894 136.585 189.587 139.738 186.107 139.403C182.627 139.069 181.595 138.348 181.595 138.348C181.595 138.348 179.857 144.056 182.119 147.084C184.383 150.11 185.06 152.182 185.06 152.182Z" fill="#449484"/>
<path fill-rule="evenodd" clip-rule="evenodd" d="M281.926 318.744H274.548L267.167 271.667H272.778L281.926 318.744Z" fill="#A6AEBA"/>
<path fill-rule="evenodd" clip-rule="evenodd" d="M279.809 318.744H251.006L243.628 271.667H272.428L279.809 318.744Z" fill="#D2DCEB"/>
<path d="M260.235 298.241L257.757 287.469" stroke="white" stroke-width="2.13515" stroke-linecap="round"/>
<path d="M266.414 302.108L260.235 298.241" stroke="white" stroke-width="2.13515" stroke-linecap="round"/>
<path fill-rule="evenodd" clip-rule="evenodd" d="M250.62 321.189H281.927V317.677H250.62V321.189Z" fill="#D2DCEB"/>
<path fill-rule="evenodd" clip-rule="evenodd" d="M281.927 321.189H321.401V317.677H281.927V321.189Z" fill="#A6AEBA"/>
<path fill-rule="evenodd" clip-rule="evenodd" d="M0 328.365H354.509V321.553H0V328.365Z" fill="#DBDBDB"/>
<path fill-rule="evenodd" clip-rule="evenodd" d="M37.8315 464.253H41.2499L69.1286 328.365H62.0669L37.8315 464.253Z" fill="#DBDBDB"/>
<path fill-rule="evenodd" clip-rule="evenodd" d="M300.884 464.253H297.466L269.587 328.365H276.649L300.884 464.253Z" fill="#DBDBDB"/>
<path fill-rule="evenodd" clip-rule="evenodd" d="M268.144 185.98H327.811V126.91H268.144V185.98Z" fill="#ECECF2"/>
<path fill-rule="evenodd" clip-rule="evenodd" d="M277.081 178.084H297.975V135.881H277.081V178.084Z" fill="white"/>
<path fill-rule="evenodd" clip-rule="evenodd" d="M320.618 142.771C320.618 146.87 317.296 150.192 313.196 150.192C309.099 150.192 305.776 146.87 305.776 142.771C305.776 138.672 309.099 135.349 313.196 135.349C317.296 135.349 320.618 138.672 320.618 142.771Z" fill="#52E6C6"/>
<path fill-rule="evenodd" clip-rule="evenodd" d="M312.61 145.692L309.176 141.272L312.288 142.574L319.441 136.319L312.61 145.692Z" fill="white"/>
<path fill-rule="evenodd" clip-rule="evenodd" d="M320.618 164.79C320.618 168.888 317.296 172.211 313.196 172.211C309.099 172.211 305.776 168.888 305.776 164.79C305.776 160.691 309.099 157.37 313.196 157.37C317.296 157.37 320.618 160.691 320.618 164.79Z" fill="#52E6C6"/>
<path fill-rule="evenodd" clip-rule="evenodd" d="M312.61 167.71L309.176 163.293L312.288 164.593L319.441 158.338L312.61 167.71Z" fill="white"/>
<path fill-rule="evenodd" clip-rule="evenodd" d="M149.514 85.0507H159.789V63.4432H149.514V85.0507Z" fill="#52E6C6"/>
<path fill-rule="evenodd" clip-rule="evenodd" d="M164.565 85.0507H174.841V71.5455H164.565V85.0507Z" fill="#52E6C6"/>
<path fill-rule="evenodd" clip-rule="evenodd" d="M179.619 85.0507H189.894V65.1373H179.619V85.0507Z" fill="#52E6C6"/>
<path fill-rule="evenodd" clip-rule="evenodd" d="M194.672 85.0507H204.947V49.8205H194.672V85.0507Z" fill="#52E6C6"/>
<path d="M149.513 56.2313L159.789 52.638L169.705 56.2313L195.428 35.5336" stroke="#99E6CF"/>
<path fill-rule="evenodd" clip-rule="evenodd" d="M199.809 32.009L195.666 39.4981L195.101 35.7974L191.607 34.4556L199.809 32.009Z" fill="#99E6CF"/>
<path d="M139.477 93.1844H215.11V47.1486" stroke="#E9F2F4" stroke-width="0.25"/>
<mask id="mask1_9_1663" style="mask-type:luminance" maskUnits="userSpaceOnUse" x="89" y="164" width="31" height="30">
<path fill-rule="evenodd" clip-rule="evenodd" d="M89.9558 178.973C89.9558 187.186 96.5065 193.844 104.587 193.844C112.668 193.844 119.219 187.186 119.219 178.973C119.219 170.76 112.668 164.103 104.587 164.103C96.5065 164.103 89.9558 170.76 89.9558 178.973Z" fill="white"/>
</mask>
<g mask="url(#mask1_9_1663)">
<path fill-rule="evenodd" clip-rule="evenodd" d="M119.219 178.973C119.219 187.186 112.668 193.843 104.588 193.843C96.5061 193.843 89.9553 187.186 89.9553 178.973C89.9553 170.761 96.5061 164.103 104.588 164.103C112.668 164.103 119.219 170.761 119.219 178.973Z" fill="#918DFF"/>
</g>
<mask id="mask2_9_1663" style="mask-type:luminance" maskUnits="userSpaceOnUse" x="89" y="164" width="31" height="30">
<path fill-rule="evenodd" clip-rule="evenodd" d="M89.9558 178.973C89.9558 187.186 96.5065 193.844 104.587 193.844C112.668 193.844 119.219 187.186 119.219 178.973C119.219 170.76 112.668 164.103 104.587 164.103C96.5065 164.103 89.9558 170.76 89.9558 178.973Z" fill="white"/>
</mask>
<g mask="url(#mask2_9_1663)">
<path fill-rule="evenodd" clip-rule="evenodd" d="M109.494 163.396L104.587 178.973L90.4971 165.216L110.455 160.655L109.494 163.396Z" fill="#E9F2F4"/>
</g>
<mask id="mask3_9_1663" style="mask-type:luminance" maskUnits="userSpaceOnUse" x="89" y="164" width="31" height="30">
<path fill-rule="evenodd" clip-rule="evenodd" d="M89.9558 178.973C89.9558 187.186 96.5065 193.844 104.587 193.844C112.668 193.844 119.219 187.186 119.219 178.973C119.219 170.76 112.668 164.103 104.587 164.103C96.5065 164.103 89.9558 170.76 89.9558 178.973Z" fill="white"/>
</mask>
<g mask="url(#mask3_9_1663)">
<path fill-rule="evenodd" clip-rule="evenodd" d="M109.494 163.396L104.587 178.973L121.306 168.518L110.455 160.655L109.494 163.396Z" fill="#508CFF"/>
</g>
<mask id="mask4_9_1663" style="mask-type:luminance" maskUnits="userSpaceOnUse" x="89" y="164" width="31" height="30">
<path fill-rule="evenodd" clip-rule="evenodd" d="M89.9558 178.973C89.9558 187.186 96.5065 193.844 104.587 193.844C112.668 193.844 119.219 187.186 119.219 178.973C119.219 170.76 112.668 164.103 104.587 164.103C96.5065 164.103 89.9558 170.76 89.9558 178.973Z" fill="white"/>
</mask>
<g mask="url(#mask4_9_1663)">
<path fill-rule="evenodd" clip-rule="evenodd" d="M104.587 193.843V178.973L121.305 168.518L122.581 186.207L108.033 195.887L104.587 193.843Z" fill="#52E6C6"/>
</g>
<defs>
<linearGradient id="paint0_linear_9_1663" x1="134.299" y1="245.492" x2="179.688" y2="233.04" gradientUnits="userSpaceOnUse">
<stop stop-color="#CFE1F2"/>
<stop offset="1" stop-color="#EDF4FB"/>
</linearGradient>
</defs>
</svg>
