<svg width="848" height="925" viewBox="0 0 848 925" fill="none" xmlns="http://www.w3.org/2000/svg">
<g clip-path="url(#clip0_522_10429)">
<path fill-rule="evenodd" clip-rule="evenodd" d="M516.127 53.7758C847.268 -3.70306 909.332 139.609 932.954 231.536C932.954 231.536 -25.9998 231.536 -25.9998 231.536L-45.7568 66.8638C-45.7568 66.8638 -23.8069 35.4282 39.8804 26.044C172.646 6.48354 184.986 111.255 516.127 53.7758Z" fill="#52E6C6"/>
<path d="M-8.16158 184.628C-8.16158 184.628 -43.3698 83.2231 -54.8673 93.1573C-59.3132 97.8211 -64.2014 102.474 -68.5421 107.133C-74.3812 114.348 -78.4675 121.615 -81.108 128.879C-81.5344 132.07 -82.5643 135.542 -83.9311 139.252C-86.0664 150.864 -84.861 162.399 -81.573 173.62C-78.3802 184.517 -54.8673 302.628 -54.8673 302.628H887.633L869.955 0L-8.16158 184.628Z" fill="#023780"/>
<mask id="mask0_522_10429" style="mask-type:alpha" maskUnits="userSpaceOnUse" x="-7" y="246" width="869" height="577">
<path fill-rule="evenodd" clip-rule="evenodd" d="M848 246H0V612.013C-2.28195 611.978 -4.61462 612.013 -7 612.12V823H0V612.013C52.2943 612.807 77.9566 650.022 101.133 683.632C123.268 715.731 143.135 744.542 181.77 735.199C185.842 734.214 189.844 733.225 193.774 732.253C251.864 717.892 294.348 707.389 321.674 771.829C354.644 849.575 421.578 828.292 421.578 771.827V744.338H433.42V771.827C433.42 828.292 500.356 849.575 533.324 771.829C562.499 703.03 627.827 710.675 673.23 735.199C708.114 754.041 727.851 724.776 751.267 690.057C774.146 656.134 800.537 617.003 848 612.452V823H862V612.12C857.136 611.901 852.474 612.023 848 612.452V246Z" fill="#C4C4C4"/>
</mask>
<g mask="url(#mask0_522_10429)">
<path fill-rule="evenodd" clip-rule="evenodd" d="M0 959H848V246H0V959Z" fill="url(#paint0_linear_522_10429)"/>
<mask id="mask1_522_10429" style="mask-type:alpha" maskUnits="userSpaceOnUse" x="-8" y="508" width="870" height="439">
<path fill-rule="evenodd" clip-rule="evenodd" d="M725.068 596.545C709.33 666.834 622.769 640.153 576.308 679.263V679.263C503.317 740.712 530.589 824.395 427 824.395V824.395C323.411 824.395 351.238 740.712 277.689 679.263V679.263C231.071 640.314 144.672 666.834 128.932 596.545V596.545C113.2 526.293 60.3224 492.213 -8 515.055V515.055V947H862V515.055C847.753 510.29 834.166 508.002 821.458 508V508C773.23 507.998 737.518 540.943 725.068 596.545" fill="white"/>
</mask>
<g mask="url(#mask1_522_10429)">
<path fill-rule="evenodd" clip-rule="evenodd" d="M725.068 596.545C709.33 666.834 622.769 640.153 576.308 679.263C503.317 740.712 530.589 824.395 427 824.395C323.411 824.395 351.238 740.712 277.689 679.263C231.071 640.314 144.672 666.834 128.932 596.545C113.2 526.293 60.3224 492.213 -8 515.055V947H862V515.055C847.753 510.29 834.166 508.002 821.458 508C773.23 507.998 737.518 540.943 725.068 596.545Z" fill="url(#paint1_linear_522_10429)"/>
</g>
<path fill-rule="evenodd" clip-rule="evenodd" d="M411.676 706.935L392.918 715.705L392.91 715.747C391.486 724.084 384.928 730.397 375.465 732.784L372.305 715.04C371.068 708.083 372.274 701.015 375.935 694.846L393.623 665.037L411.676 706.935Z" fill="url(#paint2_linear_522_10429)"/>
<mask id="mask2_522_10429" style="mask-type:alpha" maskUnits="userSpaceOnUse" x="371" y="665" width="23" height="68">
<path fill-rule="evenodd" clip-rule="evenodd" d="M376.104 715.986L378.9 731.696C377.803 732.118 376.658 732.481 375.465 732.784L372.305 715.04C371.068 708.083 372.274 701.015 375.935 694.846L393.623 665.037C393.623 665.037 383.784 683.768 379.001 694.469C376.075 701.019 374.867 709.029 376.104 715.986Z" fill="white"/>
</mask>
<g mask="url(#mask2_522_10429)">
<path fill-rule="evenodd" clip-rule="evenodd" d="M376.104 715.986C374.867 709.029 376.075 701.019 379.001 694.469C383.784 683.768 393.623 665.037 393.623 665.037L375.935 694.846C372.274 701.015 371.068 708.083 372.305 715.04L375.465 732.784C376.658 732.481 377.803 732.118 378.9 731.696L376.104 715.986Z" fill="url(#paint3_linear_522_10429)"/>
</g>
<path fill-rule="evenodd" clip-rule="evenodd" d="M443.324 706.935L462.082 715.705L462.09 715.747C463.514 724.084 470.072 730.397 479.537 732.784L482.693 715.04C483.932 708.083 482.728 701.015 479.067 694.846L461.379 665.037L443.324 706.935Z" fill="url(#paint4_linear_522_10429)"/>
<mask id="mask3_522_10429" style="mask-type:alpha" maskUnits="userSpaceOnUse" x="461" y="665" width="23" height="68">
<path fill-rule="evenodd" clip-rule="evenodd" d="M478.895 715.986C480.134 709.029 478.925 701.019 475.998 694.469C471.213 683.768 461.378 665.037 461.378 665.037L479.067 694.846C482.728 701.015 483.932 708.083 482.693 715.04L479.536 732.784C478.342 732.481 477.196 732.118 476.098 731.696L478.895 715.986Z" fill="white"/>
</mask>
<g mask="url(#mask3_522_10429)">
<path fill-rule="evenodd" clip-rule="evenodd" d="M478.895 715.986C480.134 709.029 478.925 701.019 475.998 694.469C471.213 683.768 461.378 665.037 461.378 665.037L479.067 694.846C482.728 701.015 483.932 708.083 482.693 715.04L479.536 732.784C478.342 732.481 477.196 732.118 476.098 731.696L478.895 715.986Z" fill="url(#paint5_linear_522_10429)"/>
</g>
<mask id="mask4_522_10429" style="mask-type:alpha" maskUnits="userSpaceOnUse" x="379" y="551" width="96" height="156">
<path fill-rule="evenodd" clip-rule="evenodd" d="M396.687 551.224C389.607 560.001 383.41 571.773 380.948 587.274V587.274C374.198 629.737 396.989 682.147 409.57 706.99V706.99H444.432C457.012 682.147 479.802 629.737 473.054 587.274V587.274C470.59 571.773 464.393 560.001 457.315 551.224V551.224H396.687Z" fill="white"/>
</mask>
<g mask="url(#mask4_522_10429)">
<path fill-rule="evenodd" clip-rule="evenodd" d="M396.687 551.224C389.607 560.001 383.41 571.773 380.948 587.274C374.198 629.737 396.989 682.147 409.57 706.99H444.432C457.012 682.147 479.802 629.737 473.054 587.274C470.59 571.773 464.045 560.001 456.967 551.224H396.687Z" fill="url(#paint6_linear_522_10429)"/>
</g>
<mask id="mask5_522_10429" style="mask-type:alpha" maskUnits="userSpaceOnUse" x="410" y="706" width="35" height="16">
<path fill-rule="evenodd" clip-rule="evenodd" d="M410.208 706.99C412.8 712.286 414.966 716.388 416.329 718.894V718.894C417.29 720.654 419.092 721.74 421.054 721.74V721.74H433.948C435.91 721.74 437.712 720.654 438.669 718.894V718.894C440.032 716.388 442.198 712.286 444.794 706.99V706.99H410.208Z" fill="white"/>
</mask>
<g mask="url(#mask5_522_10429)">
<path fill-rule="evenodd" clip-rule="evenodd" d="M410.208 706.99C412.8 712.286 414.966 716.388 416.329 718.894V718.894C417.29 720.654 419.092 721.74 421.054 721.74V721.74H433.948C435.91 721.74 437.712 720.654 438.669 718.894V718.894C440.032 716.388 442.198 712.286 444.794 706.99V706.99H410.208Z" fill="url(#paint7_linear_522_10429)"/>
</g>
<path fill-rule="evenodd" clip-rule="evenodd" d="M397.035 551.298H456.967C443.577 534.729 427 528.973 427 528.973V528.973C427 528.973 410.423 534.729 397.035 551.298" fill="url(#paint8_linear_522_10429)"/>
<path opacity="0.2" fill-rule="evenodd" clip-rule="evenodd" d="M457.638 551.661C464.674 560.45 470.835 572.235 473.284 587.751C479.991 630.263 457.336 682.73 444.828 707.603C442.231 712.772 440.06 716.776 438.694 719.22C437.732 720.94 435.925 722 433.959 722C479.262 607.763 468.873 571.228 427.5 529C427.5 529 444.171 534.843 457.638 551.661Z" fill="url(#paint9_linear_522_10429)"/>
<path fill-rule="evenodd" clip-rule="evenodd" d="M398.274 591.179C398.274 575.028 411.358 561.936 427.501 561.936C443.641 561.936 456.725 575.028 456.725 591.179C456.725 607.33 443.641 620.422 427.501 620.422C411.358 620.422 398.274 607.33 398.274 591.179" fill="#322D6E"/>
<path fill-rule="evenodd" clip-rule="evenodd" d="M398.728 589.974C398.728 574.075 411.61 561.186 427.5 561.186C443.391 561.186 456.273 574.075 456.273 589.974C456.273 605.874 443.391 618.762 427.5 618.762C411.61 618.762 398.728 605.874 398.728 589.974" fill="url(#paint10_linear_522_10429)"/>
<path fill-rule="evenodd" clip-rule="evenodd" d="M404.65 589.961C404.65 602.581 414.881 612.809 427.5 612.809V612.809C440.12 612.809 450.35 602.581 450.35 589.961V589.961C450.35 577.342 440.12 567.11 427.5 567.11V567.11C414.881 567.11 404.65 577.342 404.65 589.961" fill="#9BA2AD"/>
<path opacity="0.3" fill-rule="evenodd" clip-rule="evenodd" d="M838 255C838 255.553 837.554 256 836.999 256C836.446 256 836 255.553 836 255C836 254.447 836.446 254 836.999 254C837.554 254 838 254.447 838 255" fill="white"/>
<path opacity="0.3" fill-rule="evenodd" clip-rule="evenodd" d="M814 259.5C814 260.329 813.326 261 812.498 261C811.671 261 811 260.329 811 259.5C811 258.671 811.671 258 812.498 258C813.326 258 814 258.671 814 259.5" fill="white"/>
<path opacity="0.3" fill-rule="evenodd" clip-rule="evenodd" d="M797.77 258C797.77 258.424 797.426 258.77 797 258.77C796.576 258.77 796.23 258.424 796.23 258C796.23 257.576 796.576 257.23 797 257.23C797.426 257.23 797.77 257.576 797.77 258" fill="white"/>
<path opacity="0.3" fill-rule="evenodd" clip-rule="evenodd" d="M776 251.501C776 252.33 775.328 253 774.5 253C773.672 253 773 252.33 773 251.501C773 250.673 773.672 250 774.5 250C775.328 250 776 250.673 776 251.501" fill="white"/>
<path opacity="0.3" fill-rule="evenodd" clip-rule="evenodd" d="M752 276.499C752 277.327 751.327 278 750.5 278C749.671 278 749 277.327 749 276.499C749 275.671 749.671 275 750.5 275C751.327 275 752 275.671 752 276.499" fill="white"/>
<path opacity="0.3" fill-rule="evenodd" clip-rule="evenodd" d="M725.378 264C725.378 264.208 725.208 264.378 725 264.378C724.792 264.378 724.622 264.208 724.622 264C724.622 263.792 724.792 263.622 725 263.622C725.208 263.622 725.378 263.792 725.378 264" fill="white"/>
<path opacity="0.3" fill-rule="evenodd" clip-rule="evenodd" d="M685 264C685 265.104 684.105 266 682.999 266C681.895 266 681 265.104 681 264C681 262.896 681.895 262 682.999 262C684.105 262 685 262.896 685 264" fill="white"/>
<path opacity="0.3" fill-rule="evenodd" clip-rule="evenodd" d="M645.505 282C645.505 282.278 645.279 282.504 644.999 282.504C644.721 282.504 644.495 282.278 644.495 282C644.495 281.72 644.721 281.496 644.999 281.496C645.279 281.496 645.505 281.72 645.505 282" fill="white"/>
<path opacity="0.3" fill-rule="evenodd" clip-rule="evenodd" d="M708 295C708 295.552 707.552 296 707.001 296C706.448 296 706 295.552 706 295C706 294.448 706.448 294 707.001 294C707.552 294 708 294.448 708 295" fill="white"/>
<path opacity="0.3" fill-rule="evenodd" clip-rule="evenodd" d="M818 328C818 329.104 817.106 330 816.001 330C814.896 330 814 329.104 814 328C814 326.896 814.896 326 816.001 326C817.106 326 818 326.896 818 328" fill="white"/>
<path opacity="0.3" fill-rule="evenodd" clip-rule="evenodd" d="M745 324.999C745 325.551 744.553 326 743.999 326C743.447 326 743 325.551 743 324.999C743 324.447 743.447 324 743.999 324C744.553 324 745 324.447 745 324.999" fill="white"/>
<path opacity="0.3" fill-rule="evenodd" clip-rule="evenodd" d="M689.806 318.999C689.806 319.445 689.444 319.805 689 319.805C688.554 319.805 688.194 319.445 688.194 318.999C688.194 318.555 688.554 318.195 689 318.195C689.444 318.195 689.806 318.555 689.806 318.999" fill="white"/>
<path opacity="0.3" fill-rule="evenodd" clip-rule="evenodd" d="M670 433C670 434.105 669.105 435 667.999 435C666.895 435 666 434.105 666 433C666 431.895 666.895 431 667.999 431C669.105 431 670 431.895 670 433" fill="white"/>
<path opacity="0.3" fill-rule="evenodd" clip-rule="evenodd" d="M651.905 308C651.905 308.5 651.501 308.906 651.001 308.906C650.501 308.906 650.095 308.5 650.095 308C650.095 307.5 650.501 307.094 651.001 307.094C651.501 307.094 651.905 307.5 651.905 308" fill="white"/>
<path opacity="0.3" fill-rule="evenodd" clip-rule="evenodd" d="M638.232 323C638.232 323.128 638.128 323.232 638 323.232C637.87 323.232 637.768 323.128 637.768 323C637.768 322.872 637.87 322.768 638 322.768C638.128 322.768 638.232 322.872 638.232 323" fill="white"/>
<path opacity="0.3" fill-rule="evenodd" clip-rule="evenodd" d="M631.392 263C631.392 263.216 631.216 263.392 631 263.392C630.782 263.392 630.608 263.216 630.608 263C630.608 262.784 630.782 262.608 631 262.608C631.216 262.608 631.392 262.784 631.392 263" fill="white"/>
<path opacity="0.3" fill-rule="evenodd" clip-rule="evenodd" d="M598.894 302.999C598.894 303.493 598.494 303.893 598.002 303.893C597.508 303.893 597.106 303.493 597.106 302.999C597.106 302.505 597.508 302.107 598.002 302.107C598.494 302.107 598.894 302.505 598.894 302.999" fill="white"/>
<path opacity="0.3" fill-rule="evenodd" clip-rule="evenodd" d="M606 255C606 256.103 605.103 257 603.999 257C602.895 257 602 256.103 602 255C602 253.897 602.895 253 603.999 253C605.103 253 606 253.897 606 255" fill="white"/>
<path opacity="0.3" fill-rule="evenodd" clip-rule="evenodd" d="M395.789 323.001C395.789 323.435 395.437 323.789 395.001 323.789C394.565 323.789 394.211 323.435 394.211 323.001C394.211 322.565 394.565 322.211 395.001 322.211C395.437 322.211 395.789 322.565 395.789 323.001" fill="white"/>
<path fill-rule="evenodd" clip-rule="evenodd" d="M423 288.5C423 289.327 422.329 290 421.499 290C420.671 290 420 289.327 420 288.5C420 287.673 420.671 287 421.499 287C422.329 287 423 287.673 423 288.5" fill="white"/>
<path opacity="0.3" fill-rule="evenodd" clip-rule="evenodd" d="M364.986 309C364.986 309.544 364.544 309.986 364 309.986C363.456 309.986 363.014 309.544 363.014 309C363.014 308.456 363.456 308.014 364 308.014C364.544 308.014 364.986 308.456 364.986 309" fill="white"/>
<path opacity="0.3" fill-rule="evenodd" clip-rule="evenodd" d="M313.446 322.001C313.446 322.247 313.246 322.447 313 322.447C312.752 322.447 312.554 322.247 312.554 322.001C312.554 321.753 312.752 321.553 313 321.553C313.246 321.553 313.446 321.753 313.446 322.001" fill="white"/>
<path opacity="0.3" fill-rule="evenodd" clip-rule="evenodd" d="M322.391 307C322.391 307.216 322.217 307.39 322.001 307.39C321.785 307.39 321.609 307.216 321.609 307C321.609 306.784 321.785 306.61 322.001 306.61C322.217 306.61 322.391 306.784 322.391 307" fill="white"/>
<path opacity="0.3" fill-rule="evenodd" clip-rule="evenodd" d="M305 292C305 293.105 304.106 294 303.001 294C301.897 294 301 293.105 301 292C301 290.895 301.897 290 303.001 290C304.106 290 305 290.895 305 292" fill="white"/>
<path opacity="0.3" fill-rule="evenodd" clip-rule="evenodd" d="M316.828 261C316.828 261.458 316.456 261.828 316 261.828C315.542 261.828 315.172 261.458 315.172 261C315.172 260.542 315.542 260.172 316 260.172C316.456 260.172 316.828 260.542 316.828 261" fill="white"/>
<path opacity="0.3" fill-rule="evenodd" clip-rule="evenodd" d="M260 257.999C260 259.103 259.105 260 257.999 260C256.895 260 256 259.103 256 257.999C256 256.895 256.895 256 257.999 256C259.105 256 260 256.895 260 257.999" fill="white"/>
<path opacity="0.3" fill-rule="evenodd" clip-rule="evenodd" d="M273 329.5C273 330.328 272.329 331 271.501 331C270.673 331 270 330.328 270 329.5C270 328.672 270.673 328 271.501 328C272.329 328 273 328.672 273 329.5" fill="white"/>
<path opacity="0.3" fill-rule="evenodd" clip-rule="evenodd" d="M224.215 280.999C224.215 281.119 224.119 281.215 224.001 281.215C223.881 281.215 223.785 281.119 223.785 280.999C223.785 280.879 223.881 280.785 224.001 280.785C224.119 280.785 224.215 280.879 224.215 280.999" fill="white"/>
<path opacity="0.3" fill-rule="evenodd" clip-rule="evenodd" d="M681 363.501C681 364.329 680.327 365 679.499 365C678.673 365 678 364.329 678 363.501C678 362.673 678.673 362 679.499 362C680.327 362 681 362.673 681 363.501" fill="white"/>
<path opacity="0.3" fill-rule="evenodd" clip-rule="evenodd" d="M637.23 305C637.23 305.126 637.126 305.23 637 305.23C636.872 305.23 636.77 305.126 636.77 305C636.77 304.874 636.872 304.77 637 304.77C637.126 304.77 637.23 304.874 637.23 305" fill="white"/>
<path opacity="0.3" fill-rule="evenodd" clip-rule="evenodd" d="M614 411.5C614 412.329 613.328 413 612.501 413C611.671 413 611 412.329 611 411.5C611 410.671 611.671 410 612.501 410C613.328 410 614 410.671 614 411.5" fill="white"/>
<path opacity="0.3" fill-rule="evenodd" clip-rule="evenodd" d="M572 393C572 394.105 571.105 395 570.002 395C568.897 395 568 394.105 568 393C568 391.897 568.897 391 570.002 391C571.105 391 572 391.897 572 393" fill="white"/>
<path opacity="0.3" fill-rule="evenodd" clip-rule="evenodd" d="M587.601 313.999C587.601 314.331 587.331 314.601 586.999 314.601C586.667 314.601 586.399 314.331 586.399 313.999C586.399 313.667 586.667 313.399 586.999 313.399C587.331 313.399 587.601 313.667 587.601 313.999" fill="white"/>
<path opacity="0.3" fill-rule="evenodd" clip-rule="evenodd" d="M520 306.5C520 307.329 519.327 308 518.5 308C517.671 308 517 307.329 517 306.5C517 305.671 517.671 305 518.5 305C519.327 305 520 305.671 520 306.5" fill="white"/>
<path opacity="0.3" fill-rule="evenodd" clip-rule="evenodd" d="M424.312 315C424.312 315.172 424.172 315.312 424 315.312C423.828 315.312 423.688 315.172 423.688 315C423.688 314.828 423.828 314.688 424 314.688C424.172 314.688 424.312 314.828 424.312 315" fill="white"/>
<path opacity="0.3" fill-rule="evenodd" clip-rule="evenodd" d="M446.602 294.999C446.602 295.333 446.332 295.601 446 295.601C445.668 295.601 445.398 295.333 445.398 294.999C445.398 294.667 445.668 294.399 446 294.399C446.332 294.399 446.602 294.667 446.602 294.999" fill="white"/>
<path opacity="0.3" fill-rule="evenodd" clip-rule="evenodd" d="M400.206 283C400.206 283.114 400.114 283.206 400 283.206C399.886 283.206 399.794 283.114 399.794 283C399.794 282.886 399.886 282.794 400 282.794C400.114 282.794 400.206 282.886 400.206 283" fill="white"/>
<path opacity="0.3" fill-rule="evenodd" clip-rule="evenodd" d="M362 321C362 321.553 361.552 322 360.999 322C360.448 322 360 321.553 360 321C360 320.447 360.448 320 360.999 320C361.552 320 362 320.447 362 321" fill="white"/>
<path opacity="0.3" fill-rule="evenodd" clip-rule="evenodd" d="M330 328C330 329.105 329.103 330 328 330C326.895 330 326 329.105 326 328C326 326.895 326.895 326 328 326C329.103 326 330 326.895 330 328" fill="white"/>
<path opacity="0.3" fill-rule="evenodd" clip-rule="evenodd" d="M305.391 352.999C305.391 353.215 305.217 353.391 305.001 353.391C304.785 353.391 304.609 353.215 304.609 352.999C304.609 352.783 304.785 352.609 305.001 352.609C305.217 352.609 305.391 352.783 305.391 352.999" fill="white"/>
<path opacity="0.3" fill-rule="evenodd" clip-rule="evenodd" d="M267.854 348.001C267.854 348.473 267.472 348.855 267 348.855C266.526 348.855 266.146 348.473 266.146 348.001C266.146 347.529 266.526 347.145 267 347.145C267.472 347.145 267.854 347.529 267.854 348.001" fill="white"/>
<path opacity="0.3" fill-rule="evenodd" clip-rule="evenodd" d="M330.688 387C330.688 387.38 330.38 387.688 330 387.688C329.62 387.688 329.312 387.38 329.312 387C329.312 386.62 329.62 386.312 330 386.312C330.38 386.312 330.688 386.62 330.688 387" fill="white"/>
<path opacity="0.3" fill-rule="evenodd" clip-rule="evenodd" d="M261.914 364C261.914 364.504 261.504 364.914 261 364.914C260.496 364.914 260.086 364.504 260.086 364C260.086 363.496 260.496 363.086 261 363.086C261.504 363.086 261.914 363.496 261.914 364" fill="white"/>
<path opacity="0.3" fill-rule="evenodd" clip-rule="evenodd" d="M256 359C256 360.105 255.105 361 254 361C252.897 361 252 360.105 252 359C252 357.895 252.897 357 254 357C255.105 357 256 357.895 256 359" fill="white"/>
<path opacity="0.3" fill-rule="evenodd" clip-rule="evenodd" d="M256.454 369C256.454 369.25 256.25 369.454 256 369.454C255.748 369.454 255.546 369.25 255.546 369C255.546 368.75 255.748 368.546 256 368.546C256.25 368.546 256.454 368.75 256.454 369" fill="white"/>
<path opacity="0.3" fill-rule="evenodd" clip-rule="evenodd" d="M575.749 464C575.749 464.414 575.413 464.75 575.001 464.75C574.587 464.75 574.251 464.414 574.251 464C574.251 463.586 574.587 463.25 575.001 463.25C575.413 463.25 575.749 463.586 575.749 464" fill="white"/>
<path opacity="0.3" fill-rule="evenodd" clip-rule="evenodd" d="M568 480.5C568 481.328 567.329 482 566.499 482C565.671 482 565 481.328 565 480.5C565 479.672 565.671 479 566.499 479C567.329 479 568 479.672 568 480.5" fill="white"/>
<path opacity="0.3" fill-rule="evenodd" clip-rule="evenodd" d="M601.932 427.999C601.932 428.513 601.516 428.931 601 428.931C600.486 428.931 600.068 428.513 600.068 427.999C600.068 427.485 600.486 427.069 601 427.069C601.516 427.069 601.932 427.485 601.932 427.999" fill="white"/>
<path opacity="0.3" fill-rule="evenodd" clip-rule="evenodd" d="M571.461 429C571.461 429.254 571.253 429.46 571.001 429.46C570.745 429.46 570.539 429.254 570.539 429C570.539 428.746 570.745 428.54 571.001 428.54C571.253 428.54 571.461 428.746 571.461 429" fill="white"/>
<path opacity="0.3" fill-rule="evenodd" clip-rule="evenodd" d="M551 433.5C551 434.327 550.327 435 549.5 435C548.67 435 548 434.327 548 433.5C548 432.67 548.67 432 549.5 432C550.327 432 551 432.67 551 433.5" fill="white"/>
<path opacity="0.3" fill-rule="evenodd" clip-rule="evenodd" d="M433 433.5C433 434.328 432.329 435 431.501 435C430.671 435 430 434.328 430 433.5C430 432.672 430.671 432 431.501 432C432.329 432 433 432.672 433 433.5" fill="white"/>
<path opacity="0.3" fill-rule="evenodd" clip-rule="evenodd" d="M430.553 455.999C430.553 456.305 430.305 456.553 430.001 456.553C429.695 456.553 429.447 456.305 429.447 455.999C429.447 455.695 429.695 455.447 430.001 455.447C430.305 455.447 430.553 455.695 430.553 455.999" fill="white"/>
<path opacity="0.3" fill-rule="evenodd" clip-rule="evenodd" d="M426 425.5C426 426.328 425.329 427 424.499 427C423.671 427 423 426.328 423 425.5C423 424.672 423.671 424 424.499 424C425.329 424 426 424.672 426 425.5" fill="white"/>
<path opacity="0.3" fill-rule="evenodd" clip-rule="evenodd" d="M360 396.5C360 397.329 359.329 398 358.5 398C357.671 398 357 397.329 357 396.5C357 395.671 357.671 395 358.5 395C359.329 395 360 395.671 360 396.5" fill="white"/>
<path opacity="0.3" fill-rule="evenodd" clip-rule="evenodd" d="M252 450C252 451.105 251.105 452 250 452C248.895 452 248 451.105 248 450C248 448.895 248.895 448 250 448C251.105 448 252 448.895 252 450" fill="white"/>
<path opacity="0.3" fill-rule="evenodd" clip-rule="evenodd" d="M390 439C390 440.104 389.104 441 388 441C386.896 441 386 440.104 386 439C386 437.896 386.896 437 388 437C389.104 437 390 437.896 390 439" fill="white"/>
<path opacity="0.3" fill-rule="evenodd" clip-rule="evenodd" d="M335 443.5C335 444.327 334.329 445 333.5 445C332.673 445 332 444.327 332 443.5C332 442.673 332.673 442 333.5 442C334.329 442 335 442.673 335 443.5" fill="white"/>
<path opacity="0.3" fill-rule="evenodd" clip-rule="evenodd" d="M372 446.499C372 447.329 371.329 448 370.499 448C369.671 448 369 447.329 369 446.499C369 445.671 369.671 445 370.499 445C371.329 445 372 445.671 372 446.499" fill="white"/>
<path opacity="0.3" fill-rule="evenodd" clip-rule="evenodd" d="M395 462.001C395 463.105 394.105 464 393 464C391.895 464 391 463.105 391 462.001C391 460.897 391.895 460 393 460C394.105 460 395 460.897 395 462.001" fill="white"/>
<path opacity="0.3" fill-rule="evenodd" clip-rule="evenodd" d="M411.566 437C411.566 437.314 411.312 437.566 411 437.566C410.688 437.566 410.434 437.314 410.434 437C410.434 436.688 410.688 436.434 411 436.434C411.312 436.434 411.566 436.688 411.566 437" fill="white"/>
<path opacity="0.3" fill-rule="evenodd" clip-rule="evenodd" d="M703 352.001C703 352.552 702.552 353 702 353C701.447 353 701 352.552 701 352.001C701 351.45 701.447 351 702 351C702.552 351 703 351.45 703 352.001" fill="white"/>
<path opacity="0.3" fill-rule="evenodd" clip-rule="evenodd" d="M728 377.5C728 378.329 727.329 379 726.5 379C725.673 379 725 378.329 725 377.5C725 376.673 725.673 376 726.5 376C727.329 376 728 376.673 728 377.5" fill="white"/>
<path opacity="0.3" fill-rule="evenodd" clip-rule="evenodd" d="M724 325.5C724 326.329 723.329 327 722.5 327C721.673 327 721 326.329 721 325.5C721 324.671 721.673 324 722.5 324C723.329 324 724 324.671 724 325.5" fill="white"/>
<path opacity="0.3" fill-rule="evenodd" clip-rule="evenodd" d="M763.232 343C763.232 343.128 763.128 343.232 763 343.232C762.872 343.232 762.768 343.128 762.768 343C762.768 342.872 762.872 342.768 763 342.768C763.128 342.768 763.232 342.872 763.232 343" fill="white"/>
<path fill-rule="evenodd" clip-rule="evenodd" d="M542 341.501C542 342.33 541.327 343 540.499 343C539.67 343 539 342.33 539 341.501C539 340.673 539.67 340 540.499 340C541.327 340 542 340.673 542 341.501" fill="white"/>
<path fill-rule="evenodd" clip-rule="evenodd" d="M636.958 286.362C623.679 286.362 612.908 275.482 612.908 262.057C612.908 258.531 613.669 255.186 615.007 252.162C605.951 255.646 599.505 264.481 599.505 274.857C599.505 288.279 610.271 299.162 623.554 299.162C633.346 299.162 641.753 293.238 645.505 284.753C642.846 285.778 639.974 286.362 636.958 286.362" fill="white"/>
<path fill-rule="evenodd" clip-rule="evenodd" d="M446.194 589.986C446.194 600.324 437.825 608.704 427.5 608.704C417.175 608.704 408.805 600.324 408.805 589.986C408.805 579.648 417.175 571.269 427.5 571.269C437.825 571.269 446.194 579.648 446.194 589.986" fill="#383838"/>
<path fill-rule="evenodd" clip-rule="evenodd" d="M411.21 591.986C411.128 589.591 411.552 587.16 412.47 584.925C413.371 582.684 414.719 580.621 416.413 578.887C418.145 577.191 420.206 575.842 422.445 574.941C424.678 574.021 427.106 573.599 429.5 573.679V574.114C427.171 575.653 425.38 576.877 423.765 578.125C422.185 579.419 420.793 580.633 419.48 581.957C418.168 583.279 416.952 584.67 415.662 586.251C414.417 587.867 413.189 589.656 411.644 591.986H411.21Z" fill="url(#paint11_linear_522_10429)"/>
<path fill-rule="evenodd" clip-rule="evenodd" d="M442.879 580.667L418.19 605.386C420.846 606.916 423.917 607.805 427.201 607.805C437.195 607.805 445.297 599.695 445.297 589.689C445.297 586.401 444.41 583.324 442.879 580.667" fill="url(#paint12_linear_522_10429)"/>
<path opacity="0.3" d="M422.046 679.164H432.954" stroke="#383838" stroke-linecap="round"/>
<path opacity="0.3" d="M422.046 683.202H432.954" stroke="#383838" stroke-linecap="round"/>
<path opacity="0.3" d="M422.046 687.24H432.954" stroke="#383838" stroke-linecap="round"/>
<path opacity="0.3" d="M422.046 691.278H432.954" stroke="#383838" stroke-linecap="round"/>
<path opacity="0.5" d="M422.046 680.164H432.954" stroke="white" stroke-linecap="round"/>
<path opacity="0.5" d="M422.046 684.202H432.954" stroke="white" stroke-linecap="round"/>
<path opacity="0.5" d="M422.046 688.24H432.954" stroke="white" stroke-linecap="round"/>
<path opacity="0.5" d="M422.046 692.278H432.954" stroke="white" stroke-linecap="round"/>
<ellipse opacity="0.8" cx="346.081" cy="420.4" rx="2" ry="51.1836" transform="rotate(-53 346.081 420.4)" fill="url(#paint13_linear_522_10429)"/>
<ellipse opacity="0.5" rx="1" ry="31.6836" transform="matrix(-0.601815 0.798635 0.798635 0.601815 423.905 452.866)" fill="url(#paint14_linear_522_10429)"/>
</g>
<g style="mix-blend-mode:screen" filter="url(#filter0_f_522_10429)">
<path fill-rule="evenodd" clip-rule="evenodd" d="M414.07 714C414.07 714 331.388 760.036 427.498 820C523.613 760.036 440.931 714 440.931 714H414.07Z" fill="#00FFF0"/>
</g>
<path fill-rule="evenodd" clip-rule="evenodd" d="M421.002 722C421.002 722 380.994 748.926 427.5 784C474.005 748.926 434.001 722 434.001 722H421.002Z" fill="url(#paint15_linear_522_10429)"/>
<g style="mix-blend-mode:screen">
<path fill-rule="evenodd" clip-rule="evenodd" d="M423.312 722C423.312 722 397.53 739.372 427.499 762V762C457.471 739.372 431.688 722 431.688 722V722H423.312Z" fill="url(#paint16_linear_522_10429)"/>
</g>
<g style="mix-blend-mode:screen">
<path fill-rule="evenodd" clip-rule="evenodd" d="M424.401 722C424.401 722 408.398 731.989 427 745V745C445.604 731.989 429.598 722 429.598 722V722H424.401Z" fill="url(#paint17_linear_522_10429)"/>
</g>
</g>
<defs>
<filter id="filter0_f_522_10429" x="326.634" y="659.634" width="201.731" height="214.731" filterUnits="userSpaceOnUse" color-interpolation-filters="sRGB">
<feFlood flood-opacity="0" result="BackgroundImageFix"/>
<feBlend mode="normal" in="SourceGraphic" in2="BackgroundImageFix" result="shape"/>
<feGaussianBlur stdDeviation="27.1828" result="effect1_foregroundBlur_522_10429"/>
</filter>
<linearGradient id="paint0_linear_522_10429" x1="707.635" y1="806.231" x2="707.635" y2="352.14" gradientUnits="userSpaceOnUse">
<stop stop-color="#3883EA"/>
<stop offset="1" stop-color="#023780"/>
</linearGradient>
<linearGradient id="paint1_linear_522_10429" x1="869.451" y1="792.693" x2="869.451" y2="508" gradientUnits="userSpaceOnUse">
<stop stop-color="#3883EA"/>
<stop offset="1" stop-color="#4F0CBB"/>
</linearGradient>
<linearGradient id="paint2_linear_522_10429" x1="404.755" y1="647.58" x2="359.462" y2="652.388" gradientUnits="userSpaceOnUse">
<stop stop-color="#360684"/>
<stop offset="1" stop-color="#3883EA"/>
</linearGradient>
<linearGradient id="paint3_linear_522_10429" x1="371.59" y1="730.99" x2="392.224" y2="730.99" gradientUnits="userSpaceOnUse">
<stop stop-color="#9AA0B3"/>
<stop offset="1" stop-color="#CDD1D8"/>
</linearGradient>
<linearGradient id="paint4_linear_522_10429" x1="442.039" y1="735.56" x2="500.299" y2="749.164" gradientUnits="userSpaceOnUse">
<stop stop-color="#360684"/>
<stop offset="1" stop-color="#3883EA"/>
</linearGradient>
<linearGradient id="paint5_linear_522_10429" x1="483.409" y1="666.827" x2="462.775" y2="666.827" gradientUnits="userSpaceOnUse">
<stop stop-color="#9AA0B3"/>
<stop offset="1" stop-color="#CDD1D8"/>
</linearGradient>
<linearGradient id="paint6_linear_522_10429" x1="362.229" y1="609.488" x2="462.17" y2="661.292" gradientUnits="userSpaceOnUse">
<stop stop-color="#9AA0B3"/>
<stop offset="1" stop-color="#E1E4EA"/>
</linearGradient>
<linearGradient id="paint7_linear_522_10429" x1="463.792" y1="717.938" x2="460.155" y2="696.096" gradientUnits="userSpaceOnUse">
<stop stop-color="#360684"/>
<stop offset="1" stop-color="#3883EA"/>
</linearGradient>
<linearGradient id="paint8_linear_522_10429" x1="584.56" y1="594.818" x2="576.736" y2="507.689" gradientUnits="userSpaceOnUse">
<stop stop-color="#360684"/>
<stop offset="1" stop-color="#3883EA"/>
</linearGradient>
<linearGradient id="paint9_linear_522_10429" x1="474.5" y1="700.488" x2="427.5" y2="700.488" gradientUnits="userSpaceOnUse">
<stop stop-color="#360684"/>
<stop offset="1" stop-color="#374CBD"/>
</linearGradient>
<linearGradient id="paint10_linear_522_10429" x1="385.443" y1="579.807" x2="412.057" y2="625.127" gradientUnits="userSpaceOnUse">
<stop stop-color="#D4D8E0"/>
<stop offset="0.544956" stop-color="white"/>
<stop offset="0.630245" stop-color="#D5D8DE"/>
<stop offset="1" stop-color="#787A7E"/>
</linearGradient>
<linearGradient id="paint11_linear_522_10429" x1="402.398" y1="576.285" x2="411.562" y2="593.898" gradientUnits="userSpaceOnUse">
<stop stop-color="#E9EBEE"/>
<stop offset="1" stop-color="#CED2D8" stop-opacity="0.01"/>
</linearGradient>
<linearGradient id="paint12_linear_522_10429" x1="405.152" y1="584.541" x2="418.73" y2="610.635" gradientUnits="userSpaceOnUse">
<stop stop-color="#E9EBEE"/>
<stop offset="1" stop-color="#CED2D8" stop-opacity="0.01"/>
</linearGradient>
<linearGradient id="paint13_linear_522_10429" x1="344.081" y1="369.217" x2="344.081" y2="471.584" gradientUnits="userSpaceOnUse">
<stop stop-color="white" stop-opacity="0.01"/>
<stop offset="1" stop-color="white"/>
</linearGradient>
<linearGradient id="paint14_linear_522_10429" x1="0" y1="0" x2="0" y2="63.3673" gradientUnits="userSpaceOnUse">
<stop stop-color="white" stop-opacity="0.01"/>
<stop offset="1" stop-color="white"/>
</linearGradient>
<linearGradient id="paint15_linear_522_10429" x1="405.115" y1="722.316" x2="405.115" y2="784" gradientUnits="userSpaceOnUse">
<stop offset="0.131593" stop-color="#4A38EA"/>
<stop offset="1" stop-color="#ACF4FF"/>
</linearGradient>
<linearGradient id="paint16_linear_522_10429" x1="441.928" y1="762" x2="441.928" y2="722.197" gradientUnits="userSpaceOnUse">
<stop stop-color="#56FFFC"/>
<stop offset="1" stop-color="#3F02A8"/>
</linearGradient>
<linearGradient id="paint17_linear_522_10429" x1="418" y1="722" x2="418" y2="745" gradientUnits="userSpaceOnUse">
<stop stop-color="#0017FF"/>
<stop offset="1" stop-color="#2BD9FF"/>
</linearGradient>
<clipPath id="clip0_522_10429">
<rect width="848" height="925" fill="white"/>
</clipPath>
</defs>
</svg>
